<svg width="90" height="25" viewBox="0 0 90 25" fill="none" xmlns="http://www.w3.org/2000/svg">
<g clip-path="url(#clip0)">
<path fill-rule="evenodd" clip-rule="evenodd" d="M43.4735 16.6607C42.5203 17.4154 41.3716 17.8101 40.1545 17.8101C37.2059 17.8101 34.912 15.4778 34.912 12.5004C34.912 9.52106 37.2059 7.18721 40.1545 7.18721C41.3716 7.18721 42.5203 7.58619 43.4719 8.33736L43.521 8.37715L45.7957 6.11934L45.7395 6.07059C44.1875 4.73713 42.2018 4 40.1545 4C35.3813 4 31.5 7.81318 31.5 12.5004C31.5 17.188 35.3813 21 40.1545 21C42.2018 21 44.1875 20.2637 45.7407 18.9282L45.7957 18.8795L43.521 16.6232L43.4735 16.6607ZM48.8817 20.5285H52.1473V4.47231H48.8817V20.5285ZM65.0437 14.7301C64.9278 14.5226 59.3397 4.44111 59.3397 4.44111H56.148V20.4953H59.4143V10.9052C59.655 11.3233 65.0437 20.6256 65.0437 20.6256C65.0437 20.6256 70.4154 11.3257 70.6569 10.9068V20.4953H73.9205V4.44111H70.7288C70.7288 4.44111 65.1619 14.5226 65.0437 14.7301V14.7301ZM84.2084 17.6205H81.012V13.8417H84.2084C85.7023 13.8417 86.2341 14.8132 86.2341 15.72C86.2341 16.6392 85.7023 17.6205 84.2084 17.6205V17.6205ZM81.012 7.38066H84.005C85.2613 7.38066 86.0079 8.03978 86.0079 9.14626C86.0079 10.2516 85.2613 10.9154 84.005 10.9154H81.012V7.38066ZM87.3769 12.2984C88.0964 11.9044 89.2738 10.8069 89.2738 9.0117C89.2738 6.21256 87.3502 4.47309 84.2536 4.47309H77.7468V20.5285H84.5249C87.5917 20.5285 89.5 18.7465 89.5 15.8764C89.5 13.7196 88.2221 12.7227 87.3769 12.2984V12.2984Z" fill="white"/>
</g>
<path fill-rule="evenodd" clip-rule="evenodd" d="M0 25H25V0H0V25Z" fill="white"/>
<path d="M16.6799 4.73726H3.38376L9.27548 12.5H22.5717L16.6799 4.73726Z" fill="#EC1D23"/>
<path d="M22.5717 12.5H9.27548L3.38376 20.2627H16.6799L22.5717 12.5Z" fill="#780000"/>
<defs>
<clipPath id="clip0">
<rect width="58" height="18" fill="white" transform="translate(31.5 3.5)"/>
</clipPath>
</defs>
</svg>
