<svg width="184" height="26" viewBox="0 0 184 26" fill="none" xmlns="http://www.w3.org/2000/svg">
<path fill-rule="evenodd" clip-rule="evenodd" d="M0 25.5H25V0.5H0V25.5Z" fill="white"/>
<path d="M16.68 5.23726H3.38379L9.27551 13H22.5717L16.68 5.23726Z" fill="#EC1D23"/>
<path d="M22.5717 13H9.27551L3.38379 20.7627H16.68L22.5717 13Z" fill="#780000"/>
<g clip-path="url(#clip0_1113_1233)">
<path fill-rule="evenodd" clip-rule="evenodd" d="M177.96 20.9318C180.61 20.9318 182.839 19.638 183.904 17.9771L182.564 17.0239C181.363 18.8864 179.637 19.4321 177.96 19.4321C173.825 19.4321 171.349 16.1853 171.349 12.4845C171.349 8.78527 173.825 5.53566 177.96 5.53566C179.66 5.53566 181.452 6.60363 182.087 7.64933L183.521 6.58019C182.11 4.78722 179.955 4.03722 177.96 4.03722C173.166 4.03722 169.579 7.60285 169.579 12.4845C169.579 17.365 173.166 20.9318 177.96 20.9318ZM109.756 7.10176C109.051 6.05996 108.007 5.53613 106.646 5.53613C104.965 5.53613 103.217 6.42285 103.217 8.44355C103.217 10.4545 104.991 11.0392 106.892 11.6662C109.09 12.3906 111.458 13.1714 111.458 16.2744C111.458 19.2045 108.71 20.9322 106.169 20.9322C104.216 20.9322 102.33 20.2264 101.106 18.5463L102.583 17.476C103.263 18.6607 104.557 19.4322 106.236 19.4322C107.849 19.4322 109.69 18.3881 109.69 16.5021C109.69 14.3788 107.886 13.7995 105.965 13.1828C103.78 12.4811 101.444 11.7311 101.444 8.60293C101.444 5.49121 104.036 4.03769 106.646 4.03769C108.461 4.03769 109.915 4.53847 111.184 5.99316L109.756 7.10176ZM96.0444 20.52H97.678V4.44652H96.0444V20.52ZM124.012 19.0238H116.52V4.44726H114.887V20.5207H124.012V19.0238ZM130.668 14.7998H137.639L134.163 6.35527L130.668 14.7998ZM128.284 20.5201H126.378L133.371 4.44629H134.959L141.951 20.5201H140.045L138.273 16.2971H130.056L128.284 20.5201ZM157.592 4.44652L152.167 17.5243L146.741 4.44652H144.244V20.52H145.879V6.62543H145.923L151.739 20.52H152.599L158.41 6.62543H158.454V20.52H160.092V4.44652H157.592ZM164.561 20.52H166.197V4.44652H164.561V20.52Z" fill="white"/>
<path fill-rule="evenodd" clip-rule="evenodd" d="M43.9094 16.6805C42.9613 17.4363 41.8187 17.8316 40.6082 17.8316C37.6754 17.8316 35.3937 15.4957 35.3937 12.5137C35.3937 9.52969 37.6754 7.19219 40.6082 7.19219C41.8187 7.19219 42.9613 7.5918 43.9078 8.34414L43.9566 8.38398L46.2191 6.12266L46.1633 6.07383C44.6195 4.73828 42.6445 4 40.6082 4C35.8605 4 32 7.81914 32 12.5137C32 17.2086 35.8605 21.0266 40.6082 21.0266C42.6445 21.0266 44.6195 20.2891 46.1645 18.9516L46.2191 18.9027L43.9566 16.643L43.9094 16.6805ZM49.2887 20.5543H52.5367V4.47305H49.2887V20.5543ZM65.3641 14.7469C65.2488 14.5391 59.6906 4.4418 59.6906 4.4418H56.516V20.5211H59.7648V10.916C60.0043 11.3348 65.3641 20.6516 65.3641 20.6516C65.3641 20.6516 70.707 11.3371 70.9473 10.9176V20.5211H74.1934V4.4418H71.0188C71.0188 4.4418 65.4816 14.5391 65.3641 14.7469V14.7469ZM84.4262 17.6418H81.2469V13.857H84.4262C85.9121 13.857 86.441 14.8301 86.441 15.7383C86.441 16.659 85.9121 17.6418 84.4262 17.6418V17.6418ZM81.2469 7.38594H84.2238C85.4734 7.38594 86.216 8.04609 86.216 9.1543C86.216 10.2613 85.4734 10.9262 84.2238 10.9262H81.2469V7.38594ZM87.5777 12.3113C88.2934 11.9168 89.4645 10.8176 89.4645 9.01953C89.4645 6.21602 87.5512 4.47383 84.4711 4.47383H77.9992V20.5543H84.741C87.7914 20.5543 89.6895 18.7695 89.6895 15.8949C89.6895 13.7348 88.4184 12.7363 87.5777 12.3113V12.3113Z" fill="white"/>
</g>
<defs>
<clipPath id="clip0_1113_1233">
<rect width="152" height="18" fill="white" transform="translate(32 4)"/>
</clipPath>
</defs>
</svg>
