<svg width="184" height="25" viewBox="0 0 184 25" fill="none" xmlns="http://www.w3.org/2000/svg">
<g clip-path="url(#clip0)">
<path fill-rule="evenodd" clip-rule="evenodd" d="M177.144 20.6852C179.795 20.6852 182.023 19.3915 183.088 17.7305L181.749 16.7774C180.548 18.6399 178.822 19.1856 177.144 19.1856C173.01 19.1856 170.534 15.9387 170.534 12.238C170.534 8.53875 173.01 5.28914 177.144 5.28914C178.845 5.28914 180.637 6.35711 181.272 7.40281L182.705 6.33367C181.295 4.5407 179.139 3.7907 177.144 3.7907C172.35 3.7907 168.764 7.35633 168.764 12.238C168.764 17.1184 172.35 20.6852 177.144 20.6852ZM108.941 6.85523C108.236 5.81344 107.191 5.28961 105.831 5.28961C104.149 5.28961 102.401 6.17633 102.401 8.19703C102.401 10.208 104.175 10.7927 106.077 11.4197C108.274 12.1441 110.642 12.9249 110.642 16.0279C110.642 18.958 107.895 20.6857 105.353 20.6857C103.401 20.6857 101.515 19.9798 100.29 18.2998L101.767 17.2295C102.448 18.4142 103.741 19.1857 105.42 19.1857C107.033 19.1857 108.874 18.1416 108.874 16.2556C108.874 14.1323 107.07 13.553 105.15 12.9363C102.965 12.2346 100.629 11.4846 100.629 8.35641C100.629 5.24469 103.221 3.79117 105.831 3.79117C107.646 3.79117 109.099 4.29195 110.369 5.74664L108.941 6.85523ZM95.2289 20.2734H96.8625V4.2H95.2289V20.2734ZM123.196 18.7773H115.705V4.20074H114.071V20.2742H123.196V18.7773ZM129.852 14.5533H136.823L133.347 6.10875L129.852 14.5533ZM127.469 20.2736H125.563L132.555 4.19977H134.143L141.136 20.2736H139.23L137.457 16.0505H129.24L127.469 20.2736ZM156.777 4.2L151.351 17.2777L145.925 4.2H143.429V20.2734H145.064V6.37891H145.107L150.923 20.2734H151.783L157.595 6.37891H157.639V20.2734H159.276V4.2H156.777ZM163.746 20.2734H165.382V4.2H163.746V20.2734Z" fill="#780000"/>
<path fill-rule="evenodd" clip-rule="evenodd" d="M43.0939 16.4339C42.1459 17.1898 41.0033 17.5851 39.7927 17.5851C36.8599 17.5851 34.5783 15.2492 34.5783 12.2672C34.5783 9.28317 36.8599 6.94567 39.7927 6.94567C41.0033 6.94567 42.1459 7.34528 43.0924 8.09762L43.1412 8.13746L45.4037 5.87614L45.3478 5.82731C43.8041 4.49176 41.8291 3.75348 39.7927 3.75348C35.0451 3.75348 31.1845 7.57262 31.1845 12.2672C31.1845 16.9621 35.0451 20.78 39.7927 20.78C41.8291 20.78 43.8041 20.0425 45.349 18.705L45.4037 18.6562L43.1412 16.3964L43.0939 16.4339ZM48.4732 20.3078H51.7213V4.22653H48.4732V20.3078ZM64.5486 14.5004C64.4334 14.2925 58.8752 4.19528 58.8752 4.19528H55.7006V20.2746H58.9494V10.6695C59.1888 11.0882 64.5486 20.405 64.5486 20.405C64.5486 20.405 69.8916 11.0906 70.1318 10.6711V20.2746H73.3779V4.19528H70.2033C70.2033 4.19528 64.6662 14.2925 64.5486 14.5004V14.5004ZM83.6107 17.3953H80.4314V13.6105H83.6107C85.0967 13.6105 85.6256 14.5836 85.6256 15.4918C85.6256 16.4125 85.0967 17.3953 83.6107 17.3953V17.3953ZM80.4314 7.13942H83.4084C84.658 7.13942 85.4006 7.79957 85.4006 8.90778C85.4006 10.0148 84.658 10.6797 83.4084 10.6797H80.4314V7.13942ZM86.7623 12.0648C87.4779 11.6703 88.649 10.5711 88.649 8.77301C88.649 5.96949 86.7357 4.22731 83.6556 4.22731H77.1838V20.3078H83.9256C86.9759 20.3078 88.874 18.523 88.874 15.6484C88.874 13.4882 87.6029 12.4898 86.7623 12.0648V12.0648Z" fill="#780000"/>
</g>
<path fill-rule="evenodd" clip-rule="evenodd" d="M0 25H25V0H0V25Z" fill="#780000"/>
<path d="M16.6799 4.73726H3.38376L9.27548 12.5H22.5717L16.6799 4.73726Z" fill="white"/>
<path d="M22.5717 12.5H9.27548L3.38376 20.2627H16.6799L22.5717 12.5Z" fill="#EC1D23"/>
<defs>
<clipPath id="clip0">
<rect width="152" height="18" fill="white" transform="translate(31.1845 3.75348)"/>
</clipPath>
</defs>
</svg>
