<svg width="90" height="25" viewBox="0 0 90 25" fill="none" xmlns="http://www.w3.org/2000/svg">
<path fill-rule="evenodd" clip-rule="evenodd" d="M0 25H25V0H0V25Z" fill="white"/>
<path d="M16.68 4.73726H3.38379L9.27551 12.5H22.5717L16.68 4.73726Z" fill="#EC1D23"/>
<path d="M22.5717 12.5H9.27551L3.38379 20.2627H16.68L22.5717 12.5Z" fill="#780000"/>
<g clip-path="url(#clip0_1113_1197)">
<path fill-rule="evenodd" clip-rule="evenodd" d="M43.9735 16.6607C43.0203 17.4154 41.8716 17.8101 40.6545 17.8101C37.7059 17.8101 35.412 15.4778 35.412 12.5004C35.412 9.52106 37.7059 7.18721 40.6545 7.18721C41.8716 7.18721 43.0203 7.58619 43.9719 8.33736L44.021 8.37715L46.2957 6.11934L46.2395 6.07059C44.6875 4.73713 42.7018 4 40.6545 4C35.8813 4 32 7.81318 32 12.5004C32 17.188 35.8813 21 40.6545 21C42.7018 21 44.6875 20.2637 46.2407 18.9282L46.2957 18.8795L44.021 16.6232L43.9735 16.6607ZM49.3817 20.5285H52.6473V4.47231H49.3817V20.5285ZM65.5437 14.7301C65.4278 14.5226 59.8397 4.44111 59.8397 4.44111H56.648V20.4953H59.9143V10.9052C60.155 11.3233 65.5437 20.6256 65.5437 20.6256C65.5437 20.6256 70.9154 11.3257 71.1569 10.9068V20.4953H74.4205V4.44111H71.2288C71.2288 4.44111 65.6619 14.5226 65.5437 14.7301V14.7301ZM84.7084 17.6205H81.512V13.8417H84.7084C86.2023 13.8417 86.7341 14.8132 86.7341 15.72C86.7341 16.6392 86.2023 17.6205 84.7084 17.6205V17.6205ZM81.512 7.38066H84.505C85.7613 7.38066 86.5079 8.03978 86.5079 9.14626C86.5079 10.2516 85.7613 10.9154 84.505 10.9154H81.512V7.38066ZM87.8769 12.2984C88.5964 11.9044 89.7738 10.8069 89.7738 9.0117C89.7738 6.21256 87.8502 4.47309 84.7536 4.47309H78.2468V20.5285H85.0249C88.0917 20.5285 90 18.7465 90 15.8764C90 13.7196 88.7221 12.7227 87.8769 12.2984V12.2984Z" fill="white"/>
</g>
<defs>
<clipPath id="clip0_1113_1197">
<rect width="58" height="18" fill="white" transform="translate(32 3.5)"/>
</clipPath>
</defs>
</svg>
