<svg xmlns="http://www.w3.org/2000/svg" width="32" height="32" viewBox="0 0 32 32">
    <path fill="#3879C7" fill-rule="evenodd" d="M26.8 4A1.2 1.2 0 0 1 28 5.2v21.6a1.2 1.2 0 0 1-1.2 1.2H5.2A1.2 1.2 0 0 1 4 26.8V5.2A1.2 1.2 0 0 1 5.2 4h21.6zm-.6 1.2H5.8a.6.6 0 0 0-.592.503L5.2 5.8v20.4a.6.6 0 0 0 .503.592l.097.008h20.4a.6.6 0 0 0 .592-.503l.008-.097V5.8a.6.6 0 0 0-.6-.6zm-3.776 6.376a.6.6 0 0 1 .07.765l-.07.083-8 8a.6.6 0 0 1-.765.07l-.083-.07-4-4.003a.6.6 0 0 1 .765-.918l.083.07L14 19.15l7.576-7.574a.6.6 0 0 1 .848 0z"/>
</svg>
