<svg xmlns="http://www.w3.org/2000/svg" width="40" height="40" viewBox="0 0 40 40">
    <path fill="#63C76A" fill-rule="evenodd" d="M20 8c6.633 0 12 5.367 12 12s-5.367 12-12 12S8 26.633 8 20 13.367 8 20 8zm0 1.875c-2.71 0-5.255 1.05-7.162 2.963A10.074 10.074 0 0 0 9.875 20c0 2.71 1.05 5.255 2.963 7.163A10.074 10.074 0 0 0 20 30.125c2.71 0 5.255-1.05 7.163-2.962A10.074 10.074 0 0 0 30.125 20c0-2.71-1.05-5.255-2.962-7.162A10.074 10.074 0 0 0 20 9.875zm5.986 5.517c.375.366.389.956.028 1.331l-7.566 7.857a.944.944 0 0 1-.675.286h-.009a.941.941 0 0 1-.68-.3l-3.112-3.352a.944.944 0 0 1 .047-1.326.944.944 0 0 1 1.326.046l2.438 2.625 6.876-7.143a.935.935 0 0 1 1.327-.024z"/>
</svg>
