<svg xmlns="http://www.w3.org/2000/svg" width="32" height="32" viewBox="0 0 32 32">
    <path fill="#9E9E9E" fill-rule="evenodd" d="M5.524 4c-.271.026-.522.279-.524.533v22.934c0 .279.25.533.524.533H26.476c.29 0 .524-.239.524-.533V9.333a.529.529 0 0 0-.524-.533h-6.81V4.533A.55.55 0 0 0 19.144 4H5.523zm.524 1.067h12.571v21.866h-4.19v-2.666a.55.55 0 0 0-.524-.534h-3.143a.57.57 0 0 0-.524.534v2.666h-4.19V5.067zm1.571 1.066c-.29.008-.525.296-.524.534V10.4c0 .28.25.533.524.533h3.667a.55.55 0 0 0 .524-.533V6.667a.55.55 0 0 0-.524-.534H7.619zm5.762 0c-.29.008-.525.296-.524.534V10.4c0 .28.25.533.524.533h3.667a.55.55 0 0 0 .523-.533V6.667a.55.55 0 0 0-.523-.534H13.38zM8.143 7.2h2.619v2.667h-2.62V7.2zm5.762 0h2.619v2.667h-2.62V7.2zm5.762 2.667h6.285v17.066h-6.285V9.867zm1.571 1.066c-.274.01-.517.293-.524.534v3.2c0 .279.25.533.524.533h3.143a.55.55 0 0 0 .524-.533v-3.2a.55.55 0 0 0-.524-.534h-3.143zM7.62 12c-.29.007-.525.296-.524.533v3.734c0 .279.25.533.524.533h3.667a.55.55 0 0 0 .524-.533v-3.734a.55.55 0 0 0-.524-.533H7.619zm5.762 0c-.29.007-.525.296-.524.533v3.734c0 .279.25.533.524.533h3.667a.55.55 0 0 0 .523-.533v-3.734a.55.55 0 0 0-.523-.533H13.38zm8.38 0h2.096v2.133h-2.095V12zM8.144 13.067h2.619v2.666h-2.62v-2.666zm5.762 0h2.619v2.666h-2.62v-2.666zm7.333 3.2c-.274.009-.517.293-.524.533V20c0 .28.25.533.524.533h3.143a.55.55 0 0 0 .524-.533v-3.2a.55.55 0 0 0-.524-.533h-3.143zm.524 1.066h2.095v2.134h-2.095v-2.134zm-14.143.534c-.29.007-.525.296-.524.533v3.733c0 .28.25.534.524.534h3.667a.55.55 0 0 0 .524-.534V18.4a.55.55 0 0 0-.524-.533H7.619zm5.762 0c-.29.007-.525.296-.524.533v3.733c0 .28.25.534.524.534h3.667a.55.55 0 0 0 .523-.534V18.4a.55.55 0 0 0-.523-.533H13.38zm-5.238 1.066h2.619V21.6h-2.62v-2.667zm5.762 0h2.619V21.6h-2.62v-2.667zm7.333 2.667c-.274.01-.517.293-.524.533v3.2c0 .28.25.534.524.534h3.143a.55.55 0 0 0 .524-.534v-3.2a.55.55 0 0 0-.524-.533h-3.143zm.524 1.067h2.095V24.8h-2.095v-2.133zM11.286 24.8h2.095v2.133h-2.095V24.8z"/>
</svg>
