<svg xmlns="http://www.w3.org/2000/svg" width="32" height="32" viewBox="0 0 32 32">
    <path fill="#9E9E9E" fill-rule="evenodd" d="M23 4a2 2 0 0 1 2 2v20a2 2 0 0 1-2 2H9a2 2 0 0 1-2-2V6a2 2 0 0 1 2-2h14zm0 1H9a1 1 0 0 0-1 1v20a1 1 0 0 0 1 1h14a1 1 0 0 0 1-1V6a1 1 0 0 0-1-1zm-2 15v1H11v-1h10zm0 3v1H11v-1h10zM16 8a2.5 2.5 0 0 1 1.727 4.308 5 5 0 0 1 3.268 4.475L21 17H11a5.002 5.002 0 0 1 3.273-4.694A2.5 2.5 0 0 1 16 8zm0 5a4.002 4.002 0 0 0-3.83 2.845l-.044.155h7.747l-.037-.137a4.004 4.004 0 0 0-3.636-2.858L16 13zm0-4a1.5 1.5 0 1 0 0 3 1.5 1.5 0 0 0 0-3z"/>
</svg>
