<svg width="25" height="25" fill="none" xmlns="http://www.w3.org/2000/svg">
    <path fill-rule="evenodd" clip-rule="evenodd" d="M12.5 25C19.404 25 25 19.404 25 12.5S19.404 0 12.5 0 0 5.596 0 12.5 5.596 25 12.5 25z" fill="#fff"/>
    <path fill-rule="evenodd" clip-rule="evenodd" d="M12.5 0C19.404 0 25 5.596 25 12.5S19.404 25 12.5 25 0 19.404 0 12.5 5.596 0 12.5 0zm0 2C6.701 2 2 6.701 2 12.5S6.701 23 12.5 23 23 18.299 23 12.5 18.299 2 12.5 2z" fill="#FF7547"/>
    <path fill-rule="evenodd" clip-rule="evenodd" d="M20.166 12.5c0-4.229-3.438-7.667-7.666-7.667-4.229 0-7.667 3.438-7.667 7.667 0 4.229 3.438 7.667 7.667 7.667 4.228 0 7.666-3.438 7.666-7.667zM12.5 13.554c-.317 0-.575-.224-.575-.499V9.262c0-.275.258-.5.575-.5.316 0 .575.225.575.5v3.79c0 .278-.26.502-.575.502zm0 2.684a.767.767 0 1 0 0-1.534.767.767 0 0 0 0 1.534z" fill="#FF7547"/>
</svg>
