<svg width="24" height="24" fill="none" xmlns="http://www.w3.org/2000/svg">
    <path fill-rule="evenodd" clip-rule="evenodd" d="M12 4c-4.422 0-8 3.578-8 8 0 4.422 3.578 8 8 8 4.422 0 8-3.578 8-8 0-4.422-3.578-8-8-8zm0 1.25c1.806 0 3.5.703 4.775 1.975A6.697 6.697 0 0 1 18.75 12c0 1.806-.703 3.5-1.975 4.775A6.698 6.698 0 0 1 12 18.75c-1.806 0-3.5-.703-4.775-1.975A6.698 6.698 0 0 1 5.25 12c0-1.806.703-3.5 1.975-4.775A6.697 6.697 0 0 1 12 5.25zm3.824 4.026a.6.6 0 0 0-.848 0L10.8 13.45l-1.776-1.775-.083-.07a.6.6 0 0 0-.765.918l2.2 2.2.083.07a.6.6 0 0 0 .765-.07l4.6-4.6.07-.083a.6.6 0 0 0-.07-.765z" fill="#63C76A"/>
</svg>
