<svg xmlns="http://www.w3.org/2000/svg" width="32" height="32" viewBox="0 0 32 32">
    <path fill="#3879C7" fill-rule="evenodd" d="M9.212 14.06v11.637H5.333V14.061h3.88zm8.892-7.757l1.028 1.018c.262.262.427.63.427 1.028l-.03.31-.92 4.432h6.118c1.067 0 1.94.873 1.94 1.94l-.01.077.01.01v1.852c0 .252-.049.485-.136.708l-2.929 6.836a1.926 1.926 0 0 1-1.784 1.183h-8.727a1.945 1.945 0 0 1-1.94-1.94v-9.696c0-.534.214-1.019.573-1.368l6.38-6.39zM8.242 15.03H6.303v9.697h1.94V15.03zm9.866-7.358L12.4 13.388a.927.927 0 0 0-.279.673v9.697c0 .53.439.97.97.97h8.727a.96.96 0 0 0 .893-.596l2.917-6.808a.947.947 0 0 0 .069-.354v-1.45l-.061-.062.06-.478a.976.976 0 0 0-.969-.92h-7.31l1.155-5.556.017-.155a.487.487 0 0 0-.14-.339l-.341-.338z"/>
</svg>
