<svg xmlns="http://www.w3.org/2000/svg" width="32" height="32" viewBox="0 0 32 32">
    <g fill="none" fill-rule="evenodd">
        <g fill="#3879C7">
            <g>
                <path d="M27.4 26.8c.331 0 .6.269.6.6 0 .331-.269.6-.6.6H4.6c-.331 0-.6-.269-.6-.6 0-.331.269-.6.6-.6h22.8zM16.757 4.27l.092.081 4.667 4.64c.235.234.235.614 0 .848-.21.211-.54.232-.774.064l-.074-.064L16.6 5.797 16.6 21.406c0 .33-.269.6-.6.6-.331 0-.6-.27-.6-.6V5.796L11.335 9.84c-.234.235-.614.235-.849 0-.21-.21-.232-.54-.063-.774l.063-.074 4.666-4.64c.44-.439 1.135-.466 1.606-.082z" transform="translate(-764 -889) translate(764 889)"/>
            </g>
        </g>
    </g>
</svg>
