<svg xmlns="http://www.w3.org/2000/svg" xmlns:xlink="http://www.w3.org/1999/xlink" width="32" height="32" viewBox="0 0 32 32">
    <defs>
        <path id="a" d="M23.036 15.227a6.49 6.49 0 0 1 4.964 6.3A6.478 6.478 0 0 1 21.527 28c-.132 0-.258 0-.385-.01.005 0 .005.005.005.005H4.422c-.235 0-.422-.239-.422-.53V4.53c0-.29.187-.53.422-.53h18.197c.23 0 .422.24.417.53v10.697zM4.937 27.057h13.229a6.494 6.494 0 0 1-2.968-4.166H8.472c-.192 0-.352-.235-.352-.53 0-.29.16-.53.352-.53h6.59a6.451 6.451 0 0 1 .248-2.119H8.473c-.192 0-.352-.239-.352-.53 0-.29.16-.529.352-.529h7.251a6.477 6.477 0 0 1 1.688-2.123H8.47c-.191 0-.35-.24-.35-.53 0-.29.159-.53.35-.53h9.962c.117 0 .22.09.286.22a6.493 6.493 0 0 1 2.808-.637c.192 0 .384.005.571.024V4.937H4.938v22.12zm16.59.006a5.54 5.54 0 0 0 5.535-5.536 5.54 5.54 0 0 0-5.535-5.536 5.543 5.543 0 0 0-5.536 5.536 5.543 5.543 0 0 0 5.536 5.535zm3.998-6.02c.258 0 .469.216.469.474a.47.47 0 0 1-.469.469h-3.53v3.53a.47.47 0 0 1-.468.468.47.47 0 0 1-.47-.468V21.98h-3.529a.47.47 0 0 1-.469-.469.47.47 0 0 1 .47-.468h3.529v-3.53a.47.47 0 0 1 .469-.469.47.47 0 0 1 .468.47v3.529h3.53zM11.228 10.17c-.192 0-.351-.24-.351-.53 0-.29.159-.53.351-.53h7.205c.192 0 .351.24.351.53 0 .29-.159.53-.351.53h-7.205zm0 3.178c-.192 0-.351-.24-.351-.53 0-.29.159-.53.351-.53h7.205c.192 0 .351.24.351.53 0 .29-.159.53-.351.53h-7.205z"/>
    </defs>
    <g fill="none" fill-rule="evenodd">
        <mask id="b" fill="#fff">
            <use xlink:href="#a"/>
        </mask>
        <g fill="#fff" mask="url(#b)">
            <path d="M0 0h32v32H0z"/>
        </g>
    </g>
</svg>
