<svg xmlns="http://www.w3.org/2000/svg" xmlns:xlink="http://www.w3.org/1999/xlink" width="32" height="32" viewBox="0 0 32 32">
    <defs>
        <path id="a" d="M25.497 4.566V27.466c0 .29-.187.53-.421.53H6.924c-.234 0-.421-.24-.421-.53V4.572v-.005c0-.285.187-.524.416-.524h18.162c.229 0 .416.239.416.524zM17.881 27.06v.004h6.68V4.982H7.44V27.06H17.88zm-4.164-16.856c-.192 0-.35-.24-.35-.53 0-.29.158-.528.35-.528h7.19c.192 0 .351.239.351.529 0 .29-.159.529-.35.529h-7.191zm0 3.171c-.192 0-.35-.238-.35-.528 0-.29.158-.529.35-.529h7.19c.192 0 .351.239.351.529 0 .29-.159.528-.35.528h-7.191zm7.186 2.12c.192 0 .35.238.355.528 0 .29-.159.529-.35.529h-9.941c-.193 0-.352-.239-.352-.529 0-.29.16-.528.351-.528h9.937zm0 3.176c.192 0 .35.239.35.529 0 .29-.158.529-.35.529h-9.936c-.193 0-.352-.239-.352-.529 0-.29.16-.529.351-.529h9.937zm0 3.172c.192 0 .35.239.355.529 0 .29-.159.529-.35.529h-9.941c-.193 0-.352-.234-.352-.53 0-.29.16-.528.351-.528h9.937z"/>
    </defs>
    <g fill="none" fill-rule="evenodd">
        <mask id="b" fill="#fff">
            <use xlink:href="#a"/>
        </mask>
        <g fill="#fff" mask="url(#b)">
            <path d="M0 0h32v32H0z"/>
        </g>
    </g>
</svg>
