<svg xmlns="http://www.w3.org/2000/svg" width="48" height="48" viewBox="0 0 48 48">
    <g fill="#EC1D23" fill-rule="nonzero">
        <path d="M24.4 34.96H11.36a1.2 1.2 0 0 1-1.2-1.2V10.8a1.2 1.2 0 0 1 1.2-1.2h9.323a4.922 4.922 0 0 1 4.917 4.917V33.76a1.2 1.2 0 0 1-1.2 1.2zm-11.84-2.4H23.2V14.517A2.52 2.52 0 0 0 20.683 12H12.56v20.56z"/>
        <path d="M37.44 34.96H24.4a1.2 1.2 0 0 1-1.2-1.2V14.517A4.922 4.922 0 0 1 28.117 9.6h9.323a1.2 1.2 0 0 1 1.2 1.2v22.96a1.2 1.2 0 0 1-1.2 1.2zm-11.84-2.4h10.64V12h-8.123a2.52 2.52 0 0 0-2.517 2.517V32.56zM37.44 39.52H11.36a1.2 1.2 0 1 1 0-2.4h26.08a1.2 1.2 0 1 1 0 2.4zM20.08 17.76h-5.12a1.2 1.2 0 0 1 0-2.4h5.12a1.2 1.2 0 1 1 0 2.4zM20.08 25.76h-5.12a1.2 1.2 0 0 1 0-2.4h5.12a1.2 1.2 0 0 1 0 2.4zM20.08 21.76h-5.12a1.2 1.2 0 0 1 0-2.4h5.12a1.2 1.2 0 0 1 0 2.4zM20.08 29.76h-5.12a1.2 1.2 0 0 1 0-2.4h5.12a1.2 1.2 0 1 1 0 2.4z"/>
        <path d="M33.44 17.76h-5.12a1.2 1.2 0 1 1 0-2.4h5.12a1.2 1.2 0 1 1 0 2.4zM33.44 25.76h-5.12a1.2 1.2 0 1 1 0-2.4h5.12a1.2 1.2 0 0 1 0 2.4zM33.44 21.76h-5.12a1.2 1.2 0 1 1 0-2.4h5.12a1.2 1.2 0 0 1 0 2.4zM33.44 29.76h-5.12a1.2 1.2 0 1 1 0-2.4h5.12a1.2 1.2 0 1 1 0 2.4z"/>
    </g>
</svg>
