<svg width="24" height="24" viewBox="0 0 24 24" fill="none" xmlns="http://www.w3.org/2000/svg">
    <path fill-rule="evenodd" clip-rule="evenodd" d="M15.4 4a.6.6 0 0 1 .6.6V7h2.4a.6.6 0 1 1 0 1.2H17v11.2a.6.6 0 0 1-.6.6H7.6a.6.6 0 0 1-.6-.6V8.2H5.6a.6.6 0 0 1 0-1.2H8V4.6a.6.6 0 0 1 .6-.6h6.8zM8.2 8.2h7.6v10.6H8.2V8.2zm6.6-3.001H9.2v1.8h5.6v-1.8zM10.8 11a.6.6 0 0 1 .6.6v4.8a.6.6 0 0 1-.503.592L10.8 17a.6.6 0 0 1-.6-.6v-4.8a.6.6 0 0 1 .503-.592L10.8 11zm2.4 0a.6.6 0 0 1 .6.6v4.8a.6.6 0 0 1-.503.592L13.2 17a.6.6 0 0 1-.6-.6v-4.8a.6.6 0 0 1 .503-.592L13.2 11z" fill="#333739"/>
</svg>
