<svg xmlns="http://www.w3.org/2000/svg" xmlns:xlink="http://www.w3.org/1999/xlink" width="24" height="24" viewBox="0 0 24 24">
    <defs>
        <path id="a" d="M11.772.031c.26 0 .469.21.469.469l-.001 1.437h3.141c.31 0 .568.23.612.528l.007.091v12.825a.62.62 0 0 1-.619.619H.62A.62.62 0 0 1 0 15.381V2.556a.62.62 0 0 1 .619-.619H3.77V.5a.468.468 0 1 1 .938 0v1.437h2.875V.5a.468.468 0 1 1 .938 0L8.52 1.937h2.782V.5c0-.26.21-.469.469-.469zM3.77 2.874l-2.834.001v12.188h14.126V2.874H12.24v1.562a.468.468 0 1 1-.937 0V2.874H8.521v1.563a.468.468 0 1 1-.937 0V2.874H4.709v1.563a.468.468 0 1 1-.937 0L3.77 2.874zM5.5 11.17v1.5h-2v-1.5h2zm3.5 0v1.5H7v-1.5h2zm3.5 0v1.5h-2v-1.5h2zm-7-2.5v1.5h-2v-1.5h2zm3.5 0v1.5H7v-1.5h2zm3.5 0v1.5h-2v-1.5h2zm-7-2.5v1.5h-2v-1.5h2zm3.5 0v1.5H7v-1.5h2zm3.5 0v1.5h-2v-1.5h2z"/>
    </defs>
    <use fill="#333739" fill-rule="evenodd" transform="translate(4 4)" xlink:href="#a"/>
</svg>
