<svg xmlns="http://www.w3.org/2000/svg" xmlns:xlink="http://www.w3.org/1999/xlink" width="24" height="24" viewBox="0 0 24 24">
    <defs>
        <path id="a" d="M8 0a8 8 0 0 0-8 8 8 8 0 0 0 8 8 8 8 0 0 0 8-8 8 8 0 0 0-8-8zm4.01 5.816l-5.044 5.237a.63.63 0 0 1-.45.19h-.007a.628.628 0 0 1-.453-.2L3.981 8.81a.63.63 0 0 1 .031-.884.63.63 0 0 1 .885.031l1.625 1.75 4.584-4.762a.627.627 0 1 1 .903.872z"/>
    </defs>
    <use fill="#63C76A" fill-rule="evenodd" transform="translate(4 4)" xlink:href="#a"/>
</svg>
