<svg xmlns="http://www.w3.org/2000/svg" width="40" height="40" viewBox="0 0 40 40">
    <path fill="#EC1D23" fill-rule="evenodd" d="M28.75 5a2.5 2.5 0 0 1 2.5 2.5v25a2.5 2.5 0 0 1-2.5 2.5h-17.5a2.5 2.5 0 0 1-2.5-2.5v-25a2.5 2.5 0 0 1 2.5-2.5h17.5zm0 1.5h-17.5a1 1 0 0 0-.992.875l-.008.125v25a1 1 0 0 0 .875.992l.125.008h17.5a1 1 0 0 0 .992-.875l.008-.125v-25a1 1 0 0 0-.875-.992L28.75 6.5zm-2.5 22V30h-12.5v-1.5h12.5zm0-4.5v1.5h-12.5V24h12.5zM20 10a3.125 3.125 0 0 1 2.16 5.384 6.252 6.252 0 0 1 4.084 5.595l.006.271h-12.5a6.252 6.252 0 0 1 4.09-5.867A3.125 3.125 0 0 1 20 10zm0 6.5a4.752 4.752 0 0 0-4.462 3.117l-.046.133h9.014l-.035-.109a4.755 4.755 0 0 0-4.226-3.135L20 16.5zm0-5a1.625 1.625 0 1 0 0 3.25 1.625 1.625 0 0 0 0-3.25z"/>
</svg>
