<?xml version="1.0" encoding="UTF-8"?>
<svg width="45px" height="50px" viewBox="0 0 45 50" version="1.1" xmlns="http://www.w3.org/2000/svg" xmlns:xlink="http://www.w3.org/1999/xlink">
    <!-- Generator: Sketch 55.2 (78181) - https://sketchapp.com -->
    <title>Icon/72px/CreateLead</title>
    <desc>Created with Sketch.</desc>
    <defs>
        <polygon id="path-1" points="0.3843 0.3881 18.008 0.3881 18.008 18 0.3843 18"></polygon>
        <polygon id="path-3" points="0.0005 0.092 35.3775 0.092 35.3775 41.4221 0.0005 41.4221"></polygon>
    </defs>
    <g id="Create-a-New-Lead" stroke="none" stroke-width="1" fill="none" fill-rule="evenodd">
        <g id="1_CreateLead_Default" transform="translate(-1010.000000, -215.000000)">
            <g id="Icon/72px/CreateLead" transform="translate(993.000000, 203.000000)">
                <g id="Group">
                    <g transform="translate(17.000000, 11.000000)">
                        <g id="Group-9">
                            <g id="Group-3" transform="translate(27.000000, 32.908500)">
                                <mask id="mask-2" fill="white">
                                    <use xlink:href="#path-1"></use>
                                </mask>
                                <g id="Clip-2"></g>
                                <path d="M9.1963,2.4021 C10.9413,2.4021 12.5983,3.0611 13.8633,4.2571 L14.0043,4.3921 C16.6483,7.0431 16.6483,11.3561 14.0033,14.0061 C12.7193,15.2901 11.0123,15.9971 9.1963,15.9971 C7.3803,15.9971 5.6733,15.2901 4.3893,14.0061 C1.7403,11.3561 1.7403,7.0431 4.3893,4.3931 C5.6733,3.1091 7.3803,2.4021 9.1963,2.4021 M15.4263,2.9691 C13.7613,1.3051 11.5503,0.3881 9.1963,0.3881 C6.8423,0.3881 4.6303,1.3051 2.9663,2.9691 C1.3013,4.6331 0.3843,6.8461 0.3843,9.1991 C0.3843,11.5531 1.3013,13.7661 2.9663,15.4301 C4.6833,17.1441 6.9403,18.0001 9.1963,18.0001 C11.4523,18.0001 13.7093,17.1431 15.4263,15.4301 C17.0913,13.7661 18.0083,11.5531 18.0083,9.1991 C18.0083,6.8461 17.0913,4.6331 15.4263,2.9691" id="Fill-1" fill="#EC1D23" mask="url(#mask-2)"></path>
                            </g>
                            <polygon id="Fill-4" fill="#EC1D23" points="37.1641 40.9033 37.1641 37.7423 35.3421 37.7423 35.3421 40.9033 32.3111 40.9033 32.3111 42.6523 35.3421 42.6523 35.3421 45.8563 37.1641 45.8563 37.1641 42.6523 40.1931 42.6523 40.1931 40.9033"></polygon>
                            <g id="Group-8" transform="translate(0.000000, 0.908500)">
                                <mask id="mask-4" fill="white">
                                    <use xlink:href="#path-3"></use>
                                </mask>
                                <g id="Clip-7"></g>
                                <path d="M21.4375,31.1931 L19.1085,29.5391 L21.6485,26.4041 L23.4735,27.1111 L21.4375,31.1931 Z M17.7185,28.1991 L15.0525,24.9081 L15.0525,23.8431 C16.7095,24.4341 18.6865,24.4601 20.3805,23.8041 L20.3805,24.9141 L17.7185,28.1991 Z M14.0005,31.1931 L11.9645,27.1111 L13.7865,26.4061 L16.3265,29.5421 C15.2735,30.2891 14.3845,30.9201 14.0005,31.1931 L14.0005,31.1931 Z M12.1345,16.9631 L12.1345,12.1721 C15.2495,12.3021 18.6325,11.3961 21.4195,9.6521 L22.2385,10.5261 C22.7005,11.0191 22.9985,11.3371 23.1445,11.5081 L23.1445,16.9631 C23.1445,19.9481 20.7165,22.3761 17.7325,22.3761 C14.2285,22.3761 12.1345,19.6241 12.1345,16.9631 L12.1345,16.9631 Z M10.2975,11.2701 C10.1765,11.2891 10.0475,11.3161 9.9245,11.3471 L9.9245,9.7301 C9.9245,5.4761 13.3855,2.0151 17.6395,2.0151 C21.8935,2.0151 25.3545,5.4761 25.3545,9.7301 L25.3545,11.3031 C25.2595,11.2811 25.1645,11.2641 25.0665,11.2511 C25.0515,10.7121 24.9085,10.5591 23.5695,9.1341 C23.3035,8.8511 22.9895,8.5161 22.6175,8.1161 C22.1005,7.5621 21.2665,7.4581 20.6315,7.8741 C18.0135,9.5841 14.8165,10.4391 11.8785,10.2311 C11.1815,10.1811 10.5275,10.6091 10.2975,11.2701 L10.2975,11.2701 Z M10.2105,16.1101 C9.5785,15.9091 9.1395,15.3331 9.1395,14.6641 C9.1395,13.9961 9.6465,13.4901 10.2105,13.2731 L10.2105,16.1101 Z M26.1405,14.6641 C26.1405,15.1041 25.9505,15.5201 25.6175,15.8071 C25.4565,15.9461 25.2725,16.0481 25.0685,16.1111 L25.0685,13.2171 C25.7025,13.4191 26.1405,13.9951 26.1405,14.6641 L26.1405,14.6641 Z M31.2815,28.0721 L22.3035,24.5951 L22.3035,22.6941 C23.7535,21.5361 24.6995,19.9091 24.9805,18.0881 C25.6855,18.0071 26.3365,17.7241 26.8725,17.2651 C27.6295,16.6121 28.0645,15.6641 28.0645,14.6641 C28.0645,13.8651 27.7855,13.0921 27.2785,12.4781 L27.2785,9.7301 C27.2785,4.4161 22.9545,0.0911 17.6395,0.0911 C12.3255,0.0911 8.0005,4.4161 8.0005,9.7301 L8.0005,12.5511 C7.4875,13.1591 7.2155,13.8871 7.2155,14.6641 C7.2155,15.6661 7.6505,16.6141 8.4085,17.2651 C8.9425,17.7241 9.5925,18.0061 10.2985,18.0881 C10.5875,19.9661 11.6115,21.6751 13.1285,22.8111 L13.1285,24.5951 L4.1435,28.0801 C3.9735,28.1501 0.0005,29.8471 0.0005,34.4711 L0.0005,41.4221 L1.2025,41.4221 L1.9235,41.4221 L14.0275,41.4221 L15.9765,41.4221 L19.4605,41.4221 L21.4125,41.4221 L28.4995,41.4221 L28.4995,39.4981 L21.0865,39.4981 L14.0945,39.5111 L14.0965,39.4981 L1.9235,39.4981 L1.9235,34.4721 C1.9235,31.1621 4.7525,29.9111 4.8675,29.8621 L10.1635,27.8091 L12.4845,32.4591 C12.7455,32.9821 13.2705,33.3081 13.8565,33.3081 C14.3195,33.3081 14.6045,33.1271 14.8895,32.9231 L16.4665,31.8111 L16.4615,31.8031 L17.7185,30.9111 L18.9755,31.8031 L20.5565,32.9271 C20.8285,33.1221 21.1225,33.3081 21.5825,33.3081 C22.1675,33.3081 22.6945,32.9821 22.9545,32.4591 L25.2755,27.8091 L30.5695,29.8591 C30.6835,29.9081 33.2475,31.0521 33.4955,34.0111 L35.3775,33.5121 C34.8805,29.6031 31.4555,28.1441 31.2815,28.0721 L31.2815,28.0721 Z" id="Fill-6" fill="#EC1D23" mask="url(#mask-4)"></path>
                            </g>
                        </g>
                    </g>
                </g>
            </g>
        </g>
    </g>
</svg>