<svg xmlns="http://www.w3.org/2000/svg" width="40" height="40" viewBox="0 0 40 40">
    <path fill="#EC1D23" fill-rule="evenodd" d="M30.65 33.5a.6.6 0 0 1 .6.6v.3a.6.6 0 0 1-.6.6H9.35a.6.6 0 0 1-.6-.6v-.3a.6.6 0 0 1 .6-.6h21.3zM8.75 32v-.017a4.125 4.125 0 0 1 0-8.216V6.04a.75.75 0 0 1 .987-.712l2.526.842a.75.75 0 0 0 .474 0l3.276-1.092a.75.75 0 0 1 .474 0l3.276 1.092a.75.75 0 0 0 .474 0l3.276-1.092a.75.75 0 0 1 .474 0l3.276 1.092a.75.75 0 0 0 .474 0l2.526-.842a.75.75 0 0 1 .987.712v17.726a4.125 4.125 0 0 1 0 8.216V32H8.75zm15-25.42l-3.038 1.014a2.25 2.25 0 0 1-1.224.057l-.2-.057L16.25 6.58l-3.038 1.014a2.25 2.25 0 0 1-1.224.057l-.2-.057-1.538-.513V30.5h19.5V7.08l-1.538.514a2.25 2.25 0 0 1-1.224.057l-.2-.057L23.75 6.58zM6.5 27.875c0 1.323.978 2.417 2.25 2.599v-5.197a2.626 2.626 0 0 0-2.25 2.598zm24.75-2.598v5.196a2.626 2.626 0 0 0 0-5.196zm-5-.757v1.5h-12.5v-1.5h12.5zm0-4.5v1.5h-12.5v-1.5h12.5zm0-4.5v1.5H21.5v-1.5h4.75zm-7-4.5a.75.75 0 0 1 .75.75v4.5a.75.75 0 0 1-.75.75H14.5a.75.75 0 0 1-.75-.75v-4.5a.75.75 0 0 1 .75-.75h4.75zm-.75 1.5h-3.25v2.999h3.25V12.52zm7.75-1.5v1.5H21.5v-1.5h4.75z"/>
</svg>
