<svg xmlns="http://www.w3.org/2000/svg" xmlns:xlink="http://www.w3.org/1999/xlink" width="32" height="32" viewBox="0 0 32 32">
    <defs>
        <path id="a" d="M18.531 4c.29 0 .525.24.525.525v5.067a.527.527 0 0 1-.525.525h-5.067a.527.527 0 0 1-.525-.525V4.525c0-.286.234-.525.525-.525h5.067zm-.525 5.067V5.05h-4.012v4.017h4.012zM27.475 4a.53.53 0 0 1 .525.525v5.067a.527.527 0 0 1-.525.525h-5.067a.527.527 0 0 1-.525-.525V4.525c0-.286.234-.525.525-.525h5.067zm-.525 5.067V5.05h-4.012v4.017h4.012zM9.592 4c.29 0 .525.24.525.525v5.067a.527.527 0 0 1-.525.525H4.525A.527.527 0 0 1 4 9.592V4.525A.53.53 0 0 1 4.525 4h5.067zm-.525 5.067s0-4.017-.005-4.017H5.05v4.017h4.017zm9.464 3.872c.29 0 .525.234.525.525v5.067a.527.527 0 0 1-.525.525h-5.067a.527.527 0 0 1-.525-.525v-5.067c0-.286.234-.525.525-.525h5.067zm-.525 5.067v-4.012h-4.012v4.012h4.012zm9.469-5.062c.286 0 .525.234.525.525v5.067a.527.527 0 0 1-.525.525h-5.067a.527.527 0 0 1-.525-.525v-5.067c0-.286.234-.525.525-.525h5.067zm-.525 5.067v-4.013h-4.012v4.013h4.012zm-8.419 3.872c.29 0 .525.234.525.525v5.067a.527.527 0 0 1-.525.525h-5.067a.527.527 0 0 1-.525-.525v-5.067c0-.286.234-.525.525-.525h5.067zm-.525 5.067v-4.012h-4.012v4.012h4.012zm9.469-5.067c.286 0 .525.234.525.525v5.067a.527.527 0 0 1-.525.525h-5.067a.527.527 0 0 1-.525-.525v-5.067c0-.286.234-.525.525-.525h5.067zm-.525 5.067v-4.012h-4.012v4.012h4.012zM9.592 12.94c.29 0 .525.233.525.524v5.067a.527.527 0 0 1-.525.525H4.525A.527.527 0 0 1 4 18.531v-5.067c0-.286.234-.525.525-.525h5.067zm-.525 5.066s0-4.017-.005-4.012H5.05v4.012h4.017zm.525 3.877c.29 0 .525.234.525.525v5.067a.527.527 0 0 1-.525.525H4.525A.527.527 0 0 1 4 27.475v-5.067c0-.286.234-.525.525-.525h5.067zm-.525 5.067s0-4.017-.005-4.013H5.05v4.013h4.017z"/>
    </defs>
    <g fill="none" fill-rule="evenodd">
        <mask id="b" fill="#fff">
            <use xlink:href="#a"/>
        </mask>
        <g fill="#fff" mask="url(#b)">
            <path d="M0 0h32v32H0z"/>
        </g>
    </g>
</svg>
