<svg xmlns="http://www.w3.org/2000/svg" width="40" height="40" viewBox="0 0 40 40">
    <path fill="#EC1D23" fill-rule="evenodd" d="M28.75 5a2.5 2.5 0 0 1 2.5 2.5v5.33l-1.5 1.5V7.5a1 1 0 0 0-.875-.992L28.75 6.5h-17.5a1 1 0 0 0-.992.875l-.008.125v25a1 1 0 0 0 .875.992l.125.008h17.5a1 1 0 0 0 .992-.875l.008-.125v-6.313l1.5-1.5V32.5a2.5 2.5 0 0 1-2.5 2.5h-17.5a2.5 2.5 0 0 1-2.5-2.5v-25a2.5 2.5 0 0 1 2.5-2.5h17.5zm2.942 10.101l.08.067 3.058 3.035a.579.579 0 0 1 .068.738l-.067.08-10.08 10.052a.577.577 0 0 1-.212.135l-.082.023-3.791.758a.577.577 0 0 1-.69-.586l.01-.094.759-3.79a.577.577 0 0 1 .102-.23l.056-.065 10.054-10.055c.2-.2.51-.223.735-.068zM16.875 28v1.5H13.75V28h3.125zm11.508-8.14l-6.222 6.219-.437 2.17 2.159-.43 6.238-6.221-1.738-1.738zM16.875 23.5V25H13.75v-1.5h3.125zm14.493-6.621L29.444 18.8l1.74 1.739 1.931-1.925-1.747-1.735zM20 19v1.5h-6.25V19H20zm5-4.5V16H13.75v-1.5H25zm1.25-4.5v1.5h-12.5V10h12.5z"/>
</svg>
