<?xml version="1.0" encoding="UTF-8"?>
<svg width="24px" height="24px" viewBox="0 0 24 24" version="1.1" xmlns="http://www.w3.org/2000/svg" xmlns:xlink="http://www.w3.org/1999/xlink">
    <!-- Generator: Sketch 54.1 (76490) - https://sketchapp.com -->
    <title>Icon/24/Delete</title>
    <desc>Created with Sketch.</desc>
    <defs>
        <path d="M16.5415136,6.04999996 L18.209375,6.04999996 C18.553125,6.04999996 18.834375,6.33124996 18.834375,6.67499997 C18.834375,7.01874997 18.553125,7.29999997 18.20625,7.29999997 L17.0150065,7.29999997 L16.16875,19.41875 C16.15,19.746875 15.878125,20.0000001 15.55,20.0000001 L8.44999998,20.0000001 C8.12187498,20.0000001 7.84999997,19.746875 7.82499997,19.41875 L6.97874351,7.29999997 L5.79374996,7.29999997 C5.44999996,7.29999997 5.16874996,7.01874997 5.16874996,6.67499997 C5.16874996,6.33124996 5.44999996,6.04999996 5.79374996,6.04999996 L7.45223644,6.04999996 C7.48742209,6.04379828 7.52326056,6.04062496 7.55937497,6.04062496 L8.53437498,6.04062496 L8.53437498,5.57812496 C8.53437498,4.70937495 9.23124998,3.99999995 10.090625,3.99999995 L13.909375,3.99999995 C14.765625,3.99999995 15.465625,4.70624995 15.465625,5.57812496 L15.465625,6.04062496 L16.434375,6.04062496 C16.4704894,6.04062496 16.5063279,6.04379828 16.5415136,6.04999996 Z M8.23190702,7.29999997 L9.03437498,18.75 L14.96875,18.75 L15.7680955,7.29999997 L8.23190702,7.29999997 Z M9.78437499,6.00624996 L14.2125,6.00624996 L14.2125,5.57812496 C14.2125,5.39687496 14.075,5.24999996 13.90625,5.24999996 L10.090625,5.24999996 C9.92187499,5.24999996 9.78437499,5.39687496 9.78437499,5.57812496 L9.78437499,6.00624996 Z M14.00625,8.94062498 C14.271875,8.95624998 14.471875,9.15624998 14.453125,9.38749998 L13.85625,16.578125 C13.840625,16.8 13.628125,16.965625 13.375,16.965625 C13.365625,16.965625 13.353125,16.965625 13.340625,16.965625 C13.071875,16.95 12.871875,16.746875 12.890625,16.51875 L13.4875,9.32812498 C13.50625,9.09687498 13.740625,8.92499998 14.00625,8.94062498 Z M10.6375,9.32499998 L11.23125,16.515625 C11.25,16.746875 11.046875,16.946875 10.78125,16.9625 C10.76875,16.9625 10.759375,16.9625 10.746875,16.9625 C10.496875,16.9625 10.284375,16.796875 10.265625,16.575 L9.66874999,9.38437498 C9.64999999,9.15312498 9.85312499,8.95312498 10.11875,8.93749998 C10.3875,8.92187498 10.61875,9.09687498 10.6375,9.32499998 Z" id="path-1"></path>
    </defs>
    <g id="Notes" stroke="none" stroke-width="1" fill="none" fill-rule="evenodd" opacity="0.680896577">
        <g id="6_Notes_Notification_Successful" transform="translate(-1760.000000, -302.000000)">
            <g id="Icon/24/Delete" transform="translate(1760.000000, 302.000000)">
                <g id="Icon/24/Bin">
                    <mask id="mask-2" fill="white">
                        <use xlink:href="#path-1"></use>
                    </mask>
                    <g id="Combined-Shape" fill-rule="nonzero"></g>
                    <g id="Colour/Basic/2_Secondary" mask="url(#mask-2)" fill="#403838" fill-rule="evenodd">
                        <rect id="Rectangle-Copy" x="0" y="0" width="24" height="24"></rect>
                    </g>
                </g>
            </g>
        </g>
    </g>
</svg>