<svg xmlns="http://www.w3.org/2000/svg" width="140" height="140" viewBox="0 0 140 140">
    <path fill="#9E9E9E" fill-rule="evenodd" d="M61.812 27a2 2 0 0 1 2 2v2h8a2 2 0 0 1 2 2l-.001 3H91.5a8 8 0 0 1 8 8v72a8 8 0 0 1-8 8h-56a8 8 0 0 1-8-8V44a8 8 0 0 1 8-8h6.311v-3a2 2 0 0 1 2-2h8v-2a2 2 0 0 1 2-2h8zM41.81 38H35.5a6 6 0 0 0-5.996 5.775L29.5 44v72a6 6 0 0 0 5.775 5.996l.225.004h56a6 6 0 0 0 5.996-5.775L97.5 116V44a6 6 0 0 0-5.775-5.996L91.5 38H73.811v3a2 2 0 0 1-2 2h-28a2 2 0 0 1-2-2v-3zm16.001 57a2.973 2.973 0 1 1 0 5.945 2.973 2.973 0 0 1 0-5.945zm16.891-23l.702.429 2.176 1.329.543.331-.247.603-.257.626c-1.664 4.065-5.031 6.59-8.788 6.59-3.758 0-7.125-2.525-8.789-6.59l-.257-.626-.246-.603.543-.331 2.176-1.33.701-.428.32.78.256.626c1.02 2.493 3.05 4.042 5.296 4.042 2.245 0 4.275-1.55 5.296-4.043l.256-.626.32-.779zm-22.04 0l.702.429 2.176 1.329.543.331-.247.603-.257.626c-1.664 4.065-5.031 6.59-8.788 6.59-3.758 0-7.125-2.525-8.789-6.59l-.256-.626-.247-.603.543-.331 2.176-1.33.702-.428.318.78.257.626c1.02 2.493 3.05 4.042 5.296 4.042 2.245 0 4.275-1.55 5.296-4.043l.256-.626.32-.779zm59.725-36v1.662l-4.446 6.156h4.558V46h-8v-1.669l4.446-6.15h-4.34V36h7.782zm-5.057-20v2.493l-6.669 9.234h6.838V31h-12v-2.503l6.669-9.224h-6.511V16h11.673z"/>
</svg>
