<svg xmlns="http://www.w3.org/2000/svg" width="40" height="40" viewBox="0 0 40 40">
    <path fill="#EC1D23" fill-rule="evenodd" d="M30.5 28.75a.75.75 0 0 1 .75.75v4.9a.6.6 0 0 1-.6.6H9.35a.6.6 0 0 1-.6-.6v-4.9a.75.75 0 0 1 1.5 0v3.999h19.499V29.5a.75.75 0 0 1 .751-.75zm-9.551-8.415l.114.103 3.005 3.005a.75.75 0 0 1-.968 1.14l-.093-.08-2.256-2.256-.001 7.003a.75.75 0 1 1-1.5 0l.001-7.002-2.254 2.256a.75.75 0 0 1-1.14-.968l.08-.093 3.004-3.005a1.5 1.5 0 0 1 2.008-.103zM30.65 5a.6.6 0 0 1 .6.6v21.15a.75.75 0 0 1-1.5 0V6.501H10.251L10.25 26.75a.75.75 0 0 1-1.5 0V5.6a.6.6 0 0 1 .6-.6h21.3zm-6.25 9.5a.6.6 0 0 1 .6.6v.3a.6.6 0 0 1-.6.6h-8.8a.6.6 0 0 1-.6-.6v-.3a.6.6 0 0 1 .6-.6h8.8zm0-4.5a.6.6 0 0 1 .6.6v.3a.6.6 0 0 1-.6.6h-8.8a.6.6 0 0 1-.6-.6v-.3a.6.6 0 0 1 .6-.6h8.8z"/>
</svg>
