
<svg width="46px" height="16px" viewBox="0 0 46 16" version="1.1" xmlns="http://www.w3.org/2000/svg" xmlns:xlink="http://www.w3.org/1999/xlink">
    <defs>
        <path d="M12.1621832,6.66042882 L14.1707602,5.19142296 C14.3111111,5.08849898 14.4015595,4.93879138 14.4265107,4.77037033 C14.451462,4.60194927 14.4109162,4.43040931 14.3079922,4.29005843 C14.2050682,4.14970755 14.0553606,4.05925921 13.8869396,4.03430794 C13.7185185,4.00935668 13.5469786,4.04990248 13.4066277,4.15282646 L9.61403507,6.93489276 L9.60467835,6.94113057 L9.60155944,6.94424948 C9.41754384,7.08771927 9.30526314,7.31228067 9.30526314,7.54931771 C9.30526314,7.78635475 9.42066275,8.01403506 9.61091616,8.15750485 L13.4035088,10.945809 C13.5126706,11.0269006 13.6467836,11.0705653 13.7871345,11.0705653 C13.9929825,11.0705653 14.1863548,10.9707602 14.3079922,10.808577 C14.4109162,10.6682261 14.451462,10.4998051 14.4265107,10.3282651 C14.4015595,10.1567251 14.3111111,10.0070175 14.1707602,9.90721246 L11.5009747,7.94853799 C11.5664717,7.94541908 11.6319688,7.94541908 11.694347,7.94541908 C14.65731,7.94541908 17.0682262,10.3563353 17.0682262,13.3192983 C17.0682262,16.2822612 14.65731,18.6931774 11.694347,18.6931774 C8.731384,18.6931774 6.3204678,16.2822612 6.3204678,13.3192983 C6.3204678,12.9606238 6.02729041,12.6705653 5.67173485,12.6705653 C5.3161793,12.6705653 5.02300191,12.9637427 5.02300191,13.3192983 C5.02300191,16.9996102 8.01715397,19.9937622 11.6974659,19.9937622 C15.3777778,19.9937622 18.3719299,16.9996102 18.3719299,13.3192983 C18.3719299,9.79493176 15.6241716,6.89746586 12.1621832,6.66042882 Z" id="path-1"></path>
    </defs>
    <g id="Create-a-New-Lead" stroke="none" stroke-width="1" fill="none" fill-rule="evenodd">
        <g id="8_CreateLead_Notification" transform="translate(-1409.000000, -436.000000)">
            <rect x="0" y="0" width="1920" height="1080"></rect>
            <g id="Button/Textlink/IconRight/Primary" transform="translate(1392.000000, 432.000000)">
                <g id="Button/Textlink/RightAlign/Primary" transform="translate(1.808824, 2.000000)" fill="#EC1D23" font-family="Helvetica" font-size="14" font-weight="normal" letter-spacing="0.15">
                    <text id="Text-Link">
                        <tspan x="14.2759766" y="14">Edit</tspan>
                    </text>
                </g>
                <g id="Icon/24/Reload" transform="translate(44.000000, 0.000000)">
                    <mask id="mask-2" fill="white">
                        <use xlink:href="#path-1"></use>
                    </mask>
                    <g id="reload" fill-rule="nonzero"></g>
                    <g id="Colour/Basic/1_Primary" mask="url(#mask-2)" fill="#EC1D23" fill-rule="evenodd">
                        <rect id="Rectangle" x="0" y="0" width="24" height="24"></rect>
                    </g>
                </g>
            </g>
        </g>
    </g>
</svg>