<svg width="24" height="24" viewBox="0 0 24 24" fill="none" xmlns="http://www.w3.org/2000/svg">
    <path fill-rule="evenodd" clip-rule="evenodd" d="M15.577 4.423a.6.6 0 0 1 .764-.07l.083.068 3.178 3.154c.21.21.232.534.07.768l-.07.083L9.128 18.872a.6.6 0 0 1-.221.14l-.085.024-3.94.788a.601.601 0 0 1-.717-.61l.011-.096.788-3.94a.6.6 0 0 1 .107-.24l.057-.066 10.45-10.45zM12.43 9.267 6.105 15.59 5.53 18.47l2.879-.576 6.328-6.31-2.308-2.316zm.849-.849 2.309 2.317 2.74-2.733-2.324-2.309-2.725 2.725z" fill="#EC1D23"/>
</svg>
