<svg xmlns="http://www.w3.org/2000/svg" width="40" height="40" viewBox="0 0 40 40">
    <path fill="#FF7547" fill-rule="evenodd" d="M20 8c6.633 0 12 5.367 12 12s-5.367 12-12 12S8 26.633 8 20 13.367 8 20 8zm0 1.875c-2.71 0-5.255 1.05-7.162 2.963A10.074 10.074 0 0 0 9.875 20c0 2.71 1.05 5.255 2.963 7.163A10.074 10.074 0 0 0 20 30.125c2.71 0 5.255-1.05 7.163-2.962A10.074 10.074 0 0 0 30.125 20c0-2.71-1.05-5.255-2.962-7.162A10.074 10.074 0 0 0 20 9.875zm0 13.49a1.64 1.64 0 1 1 0 3.282 1.64 1.64 0 0 1 0-3.281zm0-10.012a.94.94 0 0 1 .938.938v7.12c0 .52-.422.942-.938.942a.94.94 0 0 1-.937-.937V14.29a.94.94 0 0 1 .937-.938z"/>
</svg>
