<svg xmlns="http://www.w3.org/2000/svg" width="48" height="48" viewBox="0 0 48 48">
    <g fill="#EC1D23" fill-rule="nonzero" transform="translate(4 4)">
        <path d="M13.872 36.48a1.2 1.2 0 0 1-1.2-1.2v-4.96H8.56a1.2 1.2 0 0 1-1.2-1.2V5.84a1.2 1.2 0 0 1 1.2-1.2h25.68a1.2 1.2 0 0 1 1.2 1.2v23.28a1.2 1.2 0 0 1-1.2 1.2H23.02l-8.46 5.942a1.2 1.2 0 0 1-.688.218zM9.76 27.92h4.112a1.2 1.2 0 0 1 1.2 1.2v3.85l6.88-4.832c.201-.142.442-.218.688-.218h10.4V7.04H9.76v20.88z"/>
        <path d="M21.6 20.32a1.2 1.2 0 0 1-1.2-1.2v-2.08a1.2 1.2 0 0 1 1.2-1.2 1.52 1.52 0 1 0-1.26-2.369 1.2 1.2 0 0 1-1.99-1.344 3.92 3.92 0 1 1 4.45 5.925v1.068a1.2 1.2 0 0 1-1.2 1.2z"/>
        <circle cx="21.6" cy="22.32" r="1.36"/>
    </g>
</svg>
