<svg xmlns="http://www.w3.org/2000/svg" xmlns:xlink="http://www.w3.org/1999/xlink" width="32" height="32" viewBox="0 0 32 32">
    <defs>
        <path id="a" d="M25.039 12.962l-3.055 3.052a.496.496 0 0 1-.253.136l-1.698.341c-.033.005-.066.01-.098.01a.496.496 0 0 1-.487-.59l.341-1.703a.479.479 0 0 1 .136-.252l.126-.127H9.446a.491.491 0 1 1 0-.982H21.034l3.663-3.663.772-.772c.11-.111.24-.203.378-.272-.141.07-.273.162-.387.276l-.426.426V6.905a.558.558 0 0 0-.557-.556H5.54a.558.558 0 0 0-.557.556V24.96l3.523-3.523c.192-.192.45-.3.72-.3h15.262a.558.558 0 0 0 .556-.556h-.004v-7.618zm.987-.986v8.609c0 .851-.693 1.544-1.544 1.544H9.226a.036.036 0 0 0-.024.009l-4.36 4.36a.512.512 0 0 1-.35.145.49.49 0 0 1-.491-.491L3.999 6.905c0-.851.692-1.544 1.544-1.544h18.929c.851 0 1.543.693 1.543 1.544v1.163a1.456 1.456 0 0 1 1.516 2.402l-.772.772-.734.734zm-5.001-1.473H9.445a.491.491 0 1 1 0-.983H21.03a.491.491 0 1 1-.004.983zM16.88 17.15H9.446a.491.491 0 1 1 0-.983h7.434a.491.491 0 1 1 0 .983zm4.51-1.937l4.318-4.318-.665-.664-4.318 4.318-.164.828.828-.164zm5.44-5.44a.47.47 0 0 0-.664-.664l-.421.42.664.664.421-.42z"/>
    </defs>
    <g fill="none" fill-rule="evenodd">
        <mask id="b" fill="#fff">
            <use xlink:href="#a"/>
        </mask>
        <g fill="#fff" mask="url(#b)">
            <path d="M0 0h32v32H0z"/>
        </g>
    </g>
</svg>
