<?xml version="1.0" encoding="UTF-8"?>
<svg width="32px" height="32px" viewBox="0 0 32 32" version="1.1" xmlns="http://www.w3.org/2000/svg" xmlns:xlink="http://www.w3.org/1999/xlink">
    <!-- Generator: Sketch 54.1 (76490) - https://sketchapp.com -->
    <title>Icon/32/Feedback</title>
    <desc>Created with Sketch.</desc>
    <defs>
        <path d="M25.0385965,12.9620565 L21.9836258,16.0140351 C21.9134503,16.0842105 21.8245614,16.1309942 21.7309942,16.1497076 L20.0327486,16.4912281 C20,16.4959064 19.9672515,16.5005848 19.9345029,16.5005848 C19.8035088,16.5005848 19.677193,16.4491228 19.5836257,16.3555556 C19.4666667,16.2385965 19.4152047,16.0748538 19.4479532,15.9111111 L19.7894737,14.2081871 C19.8081872,14.1099415 19.8549708,14.025731 19.9251462,13.9555555 L20.051462,13.8292398 L9.44561401,13.8292398 C9.17426898,13.8292398 8.95438594,13.6093567 8.95438594,13.3380117 C8.95438594,13.0666667 9.17426898,12.8467836 9.44561401,12.8467836 L21.0292398,12.8467836 C21.0307937,12.8467836 21.032346,12.8467908 21.0338965,12.8468052 L24.6970761,9.1836257 L25.4690059,8.41169587 C25.579949,8.30075273 25.7080979,8.20936157 25.8470573,8.14008053 C25.7056064,8.20919988 25.574144,8.30187937 25.4596492,8.41637424 L25.0339182,8.84210523 L25.0339182,6.90526312 C25.0339182,6.60116955 24.7859649,6.34853797 24.477193,6.34853797 L5.53918124,6.34853797 C5.23508767,6.34853797 4.98245609,6.59649119 4.98245609,6.90526312 L4.98245609,24.9590644 L8.50526313,21.4362573 C8.69707599,21.2444445 8.95438594,21.1368421 9.22573097,21.1368421 L24.4865497,21.1368421 C24.7906433,21.1368421 25.0432749,20.8888889 25.0432749,20.580117 L25.0385965,20.580117 L25.0385965,12.9620565 Z M26.025731,11.9758888 L26.025731,20.5847953 C26.025731,21.4362573 25.3333334,22.128655 24.4818714,22.128655 L9.22573097,22.128655 C9.21637424,22.128655 9.20701752,22.1333334 9.20233915,22.1380117 L4.84210522,26.4982457 C4.7438596,26.5918129 4.61754381,26.6432749 4.49122802,26.6432749 C4.43040931,26.6432749 4.36491223,26.6292398 4.30409352,26.605848 C4.12163738,26.5309942 3.99999995,26.3532164 3.99999995,26.1520468 L3.99999995,6.90526312 C3.99999995,6.05380113 4.69239761,5.36140346 5.54385961,5.36140346 L24.4725147,5.36140346 C25.3239766,5.36140346 26.0163743,6.05380113 26.0163743,6.90526312 L26.0163743,8.06849491 C26.1703235,8.01446437 26.3334209,7.98596488 26.4982457,7.98596488 C27.302924,7.98596488 27.9532164,8.64093564 27.9578948,9.44093565 C27.9578948,9.82456138 27.8035088,10.1988304 27.5321638,10.4701754 L26.760234,11.2421052 L26.025731,11.9758888 Z M21.0245614,10.502924 L9.44561401,10.502924 C9.17426898,10.502924 8.95438594,10.2830409 8.95438594,10.0116959 C8.95438594,9.74035085 9.17426898,9.52046781 9.44561401,9.52046781 L21.0292398,9.52046781 C21.3005848,9.52046781 21.5204679,9.74035085 21.5204679,10.0116959 C21.5204679,10.2830409 21.2959065,10.502924 21.0245614,10.502924 Z M16.8795322,17.1508772 L9.44561401,17.1508772 C9.17426898,17.1508772 8.95438594,16.9309942 8.95438594,16.6596491 C8.95438594,16.3883041 9.17426898,16.1684211 9.44561401,16.1684211 L16.8795322,16.1684211 C17.1508772,16.1684211 17.3707602,16.3883041 17.3707602,16.6596491 C17.3707602,16.9309942 17.1508772,17.1508772 16.8795322,17.1508772 Z M21.3894737,15.2140351 L25.7076024,10.8959064 L25.0432749,10.2315789 L20.7251462,14.5497076 L20.5614035,15.3777778 L21.3894737,15.2140351 Z M26.8304094,9.77309939 C26.9146199,9.68888886 26.9660819,9.56257307 26.9660819,9.44093565 C26.9660819,9.1836257 26.7555556,8.97309939 26.4982457,8.97309939 C26.3766082,8.97309939 26.2502924,9.02456137 26.1660819,9.1087719 L25.7450293,9.52982453 L26.4093568,10.194152 L26.8304094,9.77309939 Z" id="path-1"></path>
    </defs>
    <g id="Icon/32/Feedback" stroke="none" stroke-width="1" fill="none" fill-rule="evenodd">
        <mask id="mask-2" fill="white">
            <use xlink:href="#path-1"></use>
        </mask>
        <g id="Combined-Shape" fill-rule="nonzero"></g>
        <g id="Colour/Basic/2_Secondary" mask="url(#mask-2)" fill="#403838">
            <rect id="Rectangle-Copy" x="0" y="0" width="32" height="32"></rect>
        </g>
    </g>
</svg>