<svg xmlns="http://www.w3.org/2000/svg" xmlns:xlink="http://www.w3.org/1999/xlink" width="32" height="32" viewBox="0 0 32 32">
    <defs>
        <path id="a" d="M21.531 6.081c.619 0 1.125.506 1.125 1.125v3c0 .619-.506 1.125-1.125 1.125h-10.5a1.128 1.128 0 0 1-1.125-1.125v-3c0-.619.506-1.125 1.125-1.125h10.5zm.375 4.125v-3a.376.376 0 0 0-.375-.375h-10.5a.376.376 0 0 0-.375.375v3c0 .207.169.375.375.375h10.5a.376.376 0 0 0 .375-.375zm-.375 2.419c.619 0 1.125.506 1.125 1.125v10.5c0 .619-.506 1.125-1.125 1.125h-10.5a1.128 1.128 0 0 1-1.125-1.125v-10.5c0-.619.506-1.125 1.125-1.125h10.5zm-5.625 12v-5.25h-5.25v4.875c0 .206.169.375.375.375h4.875zm0-6v-5.25h-4.875a.376.376 0 0 0-.375.375v4.875h5.25zm6 5.625v-4.875h-5.25v5.25h4.875a.376.376 0 0 0 .375-.375zm0-5.625V13.75a.376.376 0 0 0-.375-.375h-4.875v5.25h5.25zm-9-.75v-1.5h-1.5v-.75h1.5v-1.5h.75v1.5h1.5v.75h-1.5v1.5h-.75zm4.5-2.25h3.75v.75h-3.75v-.75zm-5.358 8.142l-.53-.534L12.753 22l-1.233-1.233.53-.534 1.232 1.237 1.238-1.237.53.534L13.81 22l1.237 1.233-.53.534-1.237-1.237-1.233 1.237zm5.358-2.142h3.75v.75h-3.75v-.75zm1.5-1.5h.75v.75h-.75v-.75zm0 3h.75v.75h-.75v-.75zm1.5-14.044h.75v.75h-.75v-.75zm-1.5 0h.75v.75h-.75v-.75zm-1.5 0h.75v.75h-.75v-.75zM21.681 4c1.49 0 2.71 1.214 2.71 2.71v18.58A2.71 2.71 0 0 1 21.68 28H10.863a2.71 2.71 0 0 1-2.71-2.71V6.71A2.71 2.71 0 0 1 10.863 4H21.681zm1.772 21.29V6.71c0-.976-.797-1.773-1.772-1.773H10.863c-.976 0-1.772.797-1.772 1.772v18.582c0 .975.796 1.771 1.772 1.771H21.68c.975 0 1.772-.796 1.772-1.771z"/>
    </defs>
    <g fill="none" fill-rule="evenodd">
        <mask id="b" fill="#fff">
            <use xlink:href="#a"/>
        </mask>
        <g fill="#fff" mask="url(#b)">
            <path d="M0 0h32v32H0z"/>
        </g>
    </g>
</svg>
