<svg xmlns="http://www.w3.org/2000/svg" width="16" height="18" viewBox="0 0 16 18">
    <defs>
        <linearGradient id="solc8a8qna" x1="50%" x2="50%" y1=".707%" y2="97.008%">
            <stop offset="0%" stop-color="#96C1E8"/>
            <stop offset="100%" stop-color="#146CB4"/>
        </linearGradient>
    </defs>
    <g fill="none" fill-rule="evenodd">
        <g>
            <g>
                <path fill="#E5322A" d="M7.957.001s4.703-.211 7.196 4.516H7.557S6.122 4.469 4.899 6.21c-.353.729-.729 1.482-.306 2.963-.611-1.035-3.245-5.62-3.245-5.62S3.206.188 7.957 0" transform="translate(-929 -493) translate(929 493.037)"/>
                <path fill="#FDD900" d="M14.908 12.003s-2.17 4.178-7.51 3.973c.66-1.14 3.8-6.578 3.8-6.578s.758-1.219-.137-3.148c-.455-.67-.919-1.372-2.414-1.747 1.202-.011 6.49.001 6.49.001s1.983 3.291-.23 7.499" transform="translate(-929 -493) translate(929 493.037)"/>
                <path fill="#65B44C" d="M1.039 12.035s-2.534-3.969.314-8.49l3.796 6.579s.677 1.266 2.795 1.455c.808-.058 1.648-.109 2.72-1.216-.591 1.047-3.247 5.62-3.247 5.62s-3.841.072-6.378-3.948" transform="translate(-929 -493) translate(929 493.037)"/>
                <path fill="#60AB48" d="M7.399 16.015l1.068-4.459s1.175-.092 2.16-1.172c-.612 1.075-3.228 5.63-3.228 5.63" transform="translate(-929 -493) translate(929 493.037)"/>
                <path fill="#F0CE00" d="M15.138 4.504l-4.4 1.29s-.664-.973-2.09-1.29c1.236-.005 6.49 0 6.49 0" transform="translate(-929 -493) translate(929 493.037)"/>
                <path fill="#D93027" d="M4.508 9.013c-.618-1.071-3.16-5.46-3.16-5.46l3.26 3.223s-.336.69-.209 1.673l.109.564z" transform="translate(-929 -493) translate(929 493.037)"/>
                <path fill="#FEFEFE" d="M4.378 8.057c0-1.965 1.593-3.559 3.559-3.559 1.965 0 3.559 1.594 3.559 3.56 0 1.965-1.594 3.558-3.56 3.558-1.965 0-3.558-1.593-3.558-3.559" transform="translate(-929 -493) translate(929 493.037)"/>
                <path fill="url(#solc8a8qna)" d="M4.974 8.057c0 1.637 1.326 2.963 2.963 2.963 1.636 0 2.963-1.326 2.963-2.963 0-1.636-1.327-2.963-2.963-2.963-1.637 0-2.963 1.327-2.963 2.963" transform="translate(-929 -493) translate(929 493.037)"/>
            </g>
        </g>
    </g>
</svg>
