<svg xmlns="http://www.w3.org/2000/svg" width="22" height="27" viewBox="0 0 22 27">
    <defs>
        <linearGradient id="a" x1="50%" x2="50%" y1="0%" y2="100%">
            <stop offset="0%" stop-color="#FF9AF0"/>
            <stop offset="100%" stop-color="#FBB09D"/>
        </linearGradient>
        <linearGradient id="b" x1="50%" x2="50%" y1="0%" y2="100%">
            <stop offset="0%" stop-color="#FF9CE8"/>
            <stop offset="100%" stop-color="#FAAF98"/>
        </linearGradient>
        <linearGradient id="c" x1="50%" x2="50%" y1="0%" y2="100%">
            <stop offset="0%" stop-color="#FF3193"/>
            <stop offset="100%" stop-color="#EF4607"/>
        </linearGradient>
    </defs>
    <g fill="none" fill-rule="evenodd">
        <path fill="url(#a)" d="M16.5.5l5 4h-4a1 1 0 0 1-1-1v-3z" transform="translate(0 .333)"/>
        <path fill="url(#b)" d="M19.28 9.232l-1 3.372-.824-.824-2.163 2.163a1.5 1.5 0 0 1-2.007.103l-.114-.103-1.333-1.333a.5.5 0 0 0-.707 0L8.62 15.12l-.707-.707 2.512-2.511a1.5 1.5 0 0 1 2.12 0l1.334 1.333a.5.5 0 0 0 .707 0l2.163-2.163-.84-.841 3.372-1z" transform="translate(0 .333)"/>
        <path fill="url(#c)" fill-rule="nonzero" d="M16.675 0L22 4.26V20.5a1.5 1.5 0 0 1-1.5 1.5H17v2.5a1.5 1.5 0 0 1-1.5 1.5h-14A1.5 1.5 0 0 1 0 24.5v-19A1.5 1.5 0 0 1 1.5 4H5V1.5A1.5 1.5 0 0 1 6.5 0h10.175zM16 1H6.5a.5.5 0 0 0-.5.5V5H1.5a.5.5 0 0 0-.5.5v19a.5.5 0 0 0 .5.5h14a.5.5 0 0 0 .5-.5V22H6.5A1.5 1.5 0 0 1 5 20.5V10.059h1V20.5a.5.5 0 0 0 .5.5h14a.5.5 0 0 0 .5-.5V5h-3.5a1.5 1.5 0 0 1-1.493-1.356L16 3.5V1zm4.075 3L17 1.541V3.5a.5.5 0 0 0 .41.492L17.5 4h2.575z" transform="translate(0 .333)"/>
        <path d="M-5-2.667h32v32H-5z"/>
    </g>
</svg>
