<svg xmlns="http://www.w3.org/2000/svg" width="24" height="26" viewBox="0 0 24 26">
    <defs>
        <linearGradient id="a" x1="50%" x2="50%" y1="0%" y2="100%">
            <stop offset="0%" stop-color="#FF3196"/>
            <stop offset="100%" stop-color="#ED4400"/>
        </linearGradient>
        <linearGradient id="b" x1="50%" x2="50%" y1="0%" y2="100%">
            <stop offset="0%" stop-color="#FF99F4"/>
            <stop offset="100%" stop-color="#FAB5A2"/>
        </linearGradient>
    </defs>
    <g fill="none" fill-rule="evenodd">
        <g fill-rule="nonzero">
            <path fill="url(#a)" d="M2.016 25a2.016 2.016 0 0 1-2.01-1.866L0 22.984V10.08c0-.922.618-1.698 1.462-1.94l.15-.036V3.629c0-.987.71-1.809 1.648-1.982A2.017 2.017 0 0 1 5.079.007L5.242 0h12.903c.987 0 1.809.71 1.983 1.647l.034.006.022.005.023.005.015.003.005.001h-.002l.012.003.077.02.068.021.071.025.095.037a2.017 2.017 0 0 1 .148.07l.021.012a2.02 2.02 0 0 1 .128.076l.01.007a2.023 2.023 0 0 1 .298.235l.037.037a2.023 2.023 0 0 1 .148.167l.044.057a2.015 2.015 0 0 1 .195.324l.02.043a2.009 2.009 0 0 1 .06.15l.026.078a2.004 2.004 0 0 1 .056.222l.011.066c.016.101.024.206.024.312v12.232c.87.176 1.535.912 1.607 1.815l.006.16v5.148a2.016 2.016 0 0 1-1.866 2.01l-.15.006H2.016zM.813 9.957l-.007.124v12.903a1.21 1.21 0 0 0 1.086 1.203l.124.007h17.628a2.007 2.007 0 0 1-.403-1.21V11.29H8.701l-2.42-2.419H2.017A1.21 1.21 0 0 0 .813 9.957zm2.816-7.538a1.21 1.21 0 0 0-1.203 1.086l-.007.124v4.435h4.197l2.42 2.42h11.012v12.5c0 .668.542 1.21 1.21 1.21h.113a1.21 1.21 0 0 0 1.203-1.086l.007-.124v-5.147c0-.483-.283-.9-.692-1.094l-.115-.047v6.288a.403.403 0 0 1-.798.081l-.008-.081-.001-15.726h-3.628a1.21 1.21 0 0 1-1.21-1.21V2.612h-12.5V2.42zm5.406 8.065h-.167l.285.118-.118-.118zm4.95-2.016v1H9.953v-1h4.032zm0-1.613v1H9.953v-1h4.032zm5.773-4.436v.194l-2.823-.001v3.436c0 .223.181.404.404.404h3.629V3.629a1.21 1.21 0 0 0-1.086-1.203l-.124-.007zm-5.773 2.823v1H3.501v-1h10.484zm0-1.613v1H3.501v-1h10.484zm6.242-1.962l.017.005-.007-.002-.01-.003zm-.007-.001l.005.001-.003-.001h-.002zm0 0l-.013-.003-.011-.002.024.005zm-2.075-.86H5.242a1.21 1.21 0 0 0-1.14.806h15.184a1.21 1.21 0 0 0-1.14-.806zm2.051.855l-.012-.003-.056-.011.068.014z" transform="translate(.306 .5)"/>
            <path fill="url(#b)" d="M2.016 18.145l4.839 4.839H2.516a.5.5 0 0 1-.5-.5v-4.339z" transform="translate(.306 .5)"/>
        </g>
        <path d="M-4-3h32v32H-4z"/>
    </g>
</svg>
