<svg xmlns="http://www.w3.org/2000/svg" width="40" height="40" viewBox="0 0 40 40">
    <g fill="none" fill-rule="evenodd">
        <path fill="#DBDBDB" d="M20 8c6.633 0 12 5.367 12 12s-5.367 12-12 12S8 26.633 8 20 13.367 8 20 8zm0 1.875c-2.71 0-5.255 1.05-7.162 2.963C10.93 14.75 9.875 17.29 9.875 20c0 2.71 1.05 5.255 2.963 7.163C14.75 29.07 17.29 30.125 20 30.125c2.71 0 5.255-1.05 7.163-2.962 1.907-1.913 2.962-4.454 2.962-7.163 0-2.71-1.05-5.255-2.962-7.162C25.25 10.93 22.709 9.875 20 9.875zm0 3.902c1.794 0 3.27 1.404 3.358 3.194l.003.157v1.723c.823.22 1.431.973 1.431 1.864v3.576c0 1.066-.867 1.931-1.93 1.931h-5.723c-1.066 0-1.931-.866-1.931-1.93v-3.577c0-.892.607-1.643 1.43-1.864v-1.712c0-1.854 1.508-3.361 3.361-3.361zm2.752 6.863h-5.503c-.104 0-.188.084-.188.188v3.346c0 .105.084.188.188.188h5.503c.103 0 .187-.083.187-.188v-3.346c0-.104-.084-.188-.188-.188zM20 15.635c-.794 0-1.453.62-1.5 1.412l-.003 1.738h3.006v-1.646c0-.83-.674-1.503-1.503-1.503z"/>
    </g>
</svg>
