<svg xmlns="http://www.w3.org/2000/svg" width="32" height="32" fill="none" viewBox="0 0 32 32">
    <path fill="#fff" fill-rule="evenodd" d="M14.932 5.58c-.469.232-.848.612-1.081 1.08L5.632 23.2c-.59 1.187-.105 2.627 1.082 3.217.332.165.697.25 1.068.25h16.436c1.326 0 2.4-1.074 2.4-2.4 0-.37-.086-.736-.25-1.067L18.148 6.66c-.59-1.187-2.03-1.671-3.217-1.082zm1.784 1.793l8.219 16.538c.055.11.083.232.083.356 0 .441-.358.8-.8.8H7.782c-.124 0-.246-.029-.356-.084-.396-.197-.557-.677-.36-1.072l8.218-16.538c.077-.157.204-.283.36-.36.396-.197.876-.036 1.072.36zM16 18.667c-.44 0-.8-.313-.8-.695v-5.278c0-.382.36-.694.8-.694.44 0 .8.312.8.694v5.275c0 .385-.36.698-.8.698zm0 3.733c.59 0 1.067-.478 1.067-1.067s-.478-1.066-1.067-1.066c-.59 0-1.067.477-1.067 1.066 0 .59.478 1.067 1.067 1.067z" clip-rule="evenodd"/>
</svg>
