<svg width="24" height="24" viewBox="0 0 24 24" fill="none" xmlns="http://www.w3.org/2000/svg">
    <path fill-rule="evenodd" clip-rule="evenodd" d="M17.9 9.5c-1.619-1.562-3.64-2.778-5.9-2.778-2.26 0-4.281 1.216-5.9 2.778-.87.841-1.53 1.69-1.925 2.247L4 12a16.131 16.131 0 0 0 2.1 2.5c1.619 1.563 3.64 2.778 5.9 2.778 2.26 0 4.281-1.215 5.9-2.778a16.32 16.32 0 0 0 1.925-2.248L20 12a16.168 16.168 0 0 0-2.1-2.5zM12 9.2c1.545 0 2.8 1.255 2.8 2.8s-1.255 2.8-2.8 2.8A2.802 2.802 0 0 1 9.2 12c0-1.545 1.255-2.8 2.8-2.8zm0 1.2c-.882 0-1.6.718-1.6 1.6 0 .882.718 1.6 1.6 1.6.882 0 1.6-.718 1.6-1.6 0-.882-.718-1.6-1.6-1.6z" fill="#3879C7"/>
</svg>
