<svg width="24" height="24" viewBox="0 0 24 24" fill="none" xmlns="http://www.w3.org/2000/svg">
<path d="M11.4 8.6C11.4 8.26863 11.6686 8 12 8C12.3314 8 12.6 8.26863 12.6 8.6V11.4H15.4C15.7314 11.4 16 11.6686 16 12C16 12.3314 15.7314 12.6 15.4 12.6H12.6V15.4C12.6 15.7314 12.3314 16 12 16C11.6686 16 11.4 15.7314 11.4 15.4V12.6H8.6C8.26863 12.6 8 12.3314 8 12C8 11.6686 8.26863 11.4 8.6 11.4H11.4V8.6Z" fill="#EC1D23"/>
<path fill-rule="evenodd" clip-rule="evenodd" d="M4 12C4 7.5875 7.5875 4 12 4C16.4125 4 20 7.5875 20 12C20 16.4125 16.4125 20 12 20C7.5875 20 4 16.4125 4 12ZM18.8 12C18.8 8.25056 15.7494 5.2 12 5.2C8.25056 5.2 5.2 8.25056 5.2 12C5.2 15.7494 8.25056 18.8 12 18.8C15.7494 18.8 18.8 15.7494 18.8 12Z" fill="#EC1D23"/>
</svg>
