<svg xmlns="http://www.w3.org/2000/svg" width="32" height="32" viewBox="0 0 32 32">
    <g fill="none" fill-rule="evenodd">
        <g fill="#333739">
            <g>
                <g>
                    <path d="M13.333 5.333c4.412 0 8 3.589 8 8.001 0 1.919-.678 3.681-1.807 5.061l6.906 6.906c.313.312.313.819 0 1.131-.277.278-.708.309-1.02.093l-.111-.093-6.906-6.906c-1.38 1.13-3.143 1.809-5.062 1.809-4.412 0-8-3.588-8-8 0-4.413 3.588-8.002 8-8.002zm0 1.6c-3.528 0-6.4 2.872-6.4 6.401s2.872 6.4 6.4 6.4c3.529 0 6.4-2.871 6.4-6.4 0-3.529-2.871-6.4-6.4-6.4z" transform="translate(-40 -193) translate(24 166) translate(16 27)"/>
                </g>
            </g>
        </g>
    </g>
</svg>
