<svg xmlns="http://www.w3.org/2000/svg" width="32" height="32" viewBox="0 0 32 32">
    <g fill="none" fill-rule="evenodd">
        <g fill="#333739">
            <g>
                <g>
                    <path d="M23.766 8.234c.277.278.308.71.092 1.02l-.092.112L17.13 16l6.635 6.634c.312.313.312.82 0 1.132-.278.277-.71.308-1.02.092l-.112-.092L16 17.13l-6.634 6.635c-.313.312-.82.312-1.132 0-.277-.278-.308-.71-.092-1.02l.092-.112L14.87 16 8.234 9.366c-.312-.313-.312-.82 0-1.132.278-.277.71-.308 1.02-.092l.112.092L16 14.87l6.634-6.635c.313-.312.82-.312 1.132 0z" transform="translate(-40 -193) translate(24 166) translate(16 27)"/>
                </g>
            </g>
        </g>
    </g>
</svg>
