<svg width="32" height="32" viewBox="0 0 32 32" fill="none" xmlns="http://www.w3.org/2000/svg">
    <path fill-rule="evenodd" clip-rule="evenodd" d="M24 6a2 2 0 0 0-2-2H7a2 2 0 0 0-2 2v17a2 2 0 0 0 2 2h2v.52l.005.163A2.472 2.472 0 0 0 11.467 28h13.066l.163-.005A2.475 2.475 0 0 0 27 25.52V10.48l-.005-.163A2.472 2.472 0 0 0 24.533 8H24V6zm0 2.056V23a2 2 0 0 1-2 2H10.2v.52c0 .664.5 1.208 1.137 1.273l.13.007h13.066c.655 0 1.195-.503 1.26-1.149l.007-.131V10.48c0-.664-.5-1.208-1.137-1.273l-.13-.007H24V8.056zM7 5.2h15l.1.006a.8.8 0 0 1 .7.794v17l-.006.1a.8.8 0 0 1-.794.7H7l-.1-.006A.8.8 0 0 1 6.2 23V6l.006-.1A.8.8 0 0 1 7 5.2zM16 8H9v1.2h7V8zm4 4.8H9v-1.2h11v1.2zm-11 6h7V20H9v-1.2zm11-2.4H9v-1.2h11v1.2z" fill="#fff"/>
</svg>
