<svg xmlns="http://www.w3.org/2000/svg" xmlns:xlink="http://www.w3.org/1999/xlink" width="24" height="24" viewBox="0 0 24 24">
    <defs>
        <path id="a" d="M12 4c-4.422 0-8 3.578-8 8 0 4.422 3.578 8 8 8 4.422 0 8-3.578 8-8 0-4.422-3.578-8-8-8zm.872 7.125c-.01.113-.028.225-.063.338l-.78 3.246a3.076 3.076 0 0 0-.063.275 1.384 1.384 0 0 0-.025.225c0 .1.018.172.053.2.025.02.087.05.256.05a.85.85 0 0 0 .216-.034l.018-.003a.217.217 0 0 1 .2.06c.06.056.082.137.063.218l-.016.06a.227.227 0 0 1-.134.152c-.206.082-.375.144-.497.188l-.019.006a1.622 1.622 0 0 1-.531.081c-.313 0-.563-.078-.744-.234a.795.795 0 0 1-.278-.619c0-.09.006-.178.019-.271a2.62 2.62 0 0 1 .06-.307l.78-3.253c.025-.094.047-.187.063-.275v-.003a1.01 1.01 0 0 0 .025-.225c0-.134-.031-.184-.05-.203-.016-.016-.069-.047-.244-.047a.704.704 0 0 0-.206.031c-.069.022-.144.044-.203.066l-.19.072.14-.578.053-.022c.203-.082.394-.15.569-.207.187-.059.369-.09.54-.09.313 0 .56.078.735.234a.79.79 0 0 1 .268.61c0 .062-.006.14-.015.259zm.331-1.716a.901.901 0 0 1-.662.275.901.901 0 0 1-.663-.275.907.907 0 0 1-.278-.659c0-.256.09-.478.278-.666a.897.897 0 0 1 .663-.275c.256 0 .48.094.662.275a.91.91 0 0 1 .272.666.89.89 0 0 1-.272.66z"/>
    </defs>
    <g fill="none" fill-rule="evenodd">
        <mask id="b" fill="#fff">
            <use xlink:href="#a"/>
        </mask>
        <g fill="#bbbbbb" mask="url(#b)">
            <path d="M0 0h24v24H0z"/>
        </g>
    </g>
</svg>
