<svg xmlns="http://www.w3.org/2000/svg" width="24" height="24" viewBox="0 0 24 24">
    <g fill="none" fill-rule="evenodd">
        <g fill="#333739">
            <g>
                <path d="M12 4c4.422 0 8 3.578 8 8 0 4.422-3.578 8-8 8-4.422 0-8-3.578-8-8 0-4.422 3.578-8 8-8zm0 1.2c-1.82 0-3.53.705-4.81 1.99C5.908 8.474 5.2 10.18 5.2 12c0 1.82.705 3.53 1.99 4.81 1.284 1.282 2.99 1.99 4.81 1.99 1.82 0 3.53-.705 4.81-1.99 1.282-1.284 1.99-2.99 1.99-4.81 0-1.82-.705-3.53-1.99-4.81C15.526 5.908 13.82 5.2 12 5.2zm.716 5.517c.065.175.09.362.07.547l-.395 3.758c-.026.247.153.468.4.494.108.011.216-.017.304-.079l.062-.052-.052.497-.276.104c-.62.232-1.312-.082-1.545-.702-.065-.175-.09-.362-.07-.547l.395-3.758c.026-.247-.153-.468-.4-.494-.108-.011-.216.017-.304.079l-.062.052.052-.497.276-.104c.62-.232 1.312.082 1.545.702zM12 8c.442 0 .8.358.8.8 0 .442-.358.8-.8.8-.442 0-.8-.358-.8-.8 0-.442.358-.8.8-.8z" transform="translate(-769 -275) translate(769 275)"/>
            </g>
        </g>
    </g>
</svg>
