<svg xmlns="http://www.w3.org/2000/svg" width="32" height="32" viewBox="0 0 32 32">
    <path fill="#9E9E9E" fill-rule="evenodd" d="M16 5.333A10.66 10.66 0 0 1 26.667 16 10.66 10.66 0 0 1 16 26.667 10.66 10.66 0 0 1 5.333 16 10.66 10.66 0 0 1 16 5.333zM16 7a8.93 8.93 0 0 0-6.367 2.633A8.954 8.954 0 0 0 7 16a8.93 8.93 0 0 0 2.633 6.367A8.954 8.954 0 0 0 16 25a8.93 8.93 0 0 0 6.367-2.633A8.954 8.954 0 0 0 25 16a8.93 8.93 0 0 0-2.633-6.367A8.954 8.954 0 0 0 16 7zm-.156 6.365c.416 0 .746.104.979.312.233.204.354.48.358.813 0 .083-.008.187-.02.345-.013.15-.038.3-.084.45l-1.042 4.33c-.029.104-.058.229-.083.366-.03.171-.033.259-.033.3 0 .134.025.23.07.267.034.025.117.067.342.067.084 0 .18-.017.288-.046l.025-.004a.29.29 0 0 1 .266.079c.08.075.109.183.084.291l-.021.08a.303.303 0 0 1-.18.204c-.274.108-.5.191-.662.25l-.025.008c-.204.07-.441.108-.708.108-.417 0-.75-.104-.992-.312a1.06 1.06 0 0 1-.37-.825c0-.12.008-.238.024-.363.017-.125.042-.262.08-.408l1.041-4.337c.034-.125.063-.25.084-.367v-.004c.025-.113.033-.209.033-.3 0-.18-.042-.246-.067-.271-.02-.02-.091-.063-.325-.063a.939.939 0 0 0-.275.042c-.091.03-.191.058-.27.088l-.255.095.188-.77.07-.03c.271-.108.526-.2.759-.275.25-.079.492-.12.72-.12zm.875-2.95c.341 0 .641.125.883.366.242.242.363.542.363.888s-.117.633-.363.879a1.201 1.201 0 0 1-.883.367c-.35 0-.642-.125-.884-.367a1.21 1.21 0 0 1-.37-.88c0-.34.12-.637.37-.887s.542-.366.884-.366z"/>
</svg>
