<svg xmlns="http://www.w3.org/2000/svg" width="24" height="24" viewBox="0 0 24 24">
    <g fill="#403838" fill-rule="nonzero">
        <path d="M5.285 18.727a.577.577 0 0 1-.157-.517l.635-3.263a.578.578 0 0 1 .158-.298L16.273 4.297a.577.577 0 0 1 .816 0l2.642 2.642a.577.577 0 0 1 0 .815L9.379 18.107a.578.578 0 0 1-.3.159l-3.278.62a.578.578 0 0 1-.516-.16zm1.576-3.387l-.438 2.255 2.266-.43 9.818-9.819-1.826-1.825-9.82 9.82z"/>
        <path d="M15.953 10.627l-2.642-2.642c-.225-.225.464-.76.689-.985.225-.225-.098-.056.127.169l2.642 2.642a.577.577 0 1 1-.816.816z"/>
    </g>
</svg>
