<svg xmlns="http://www.w3.org/2000/svg" width="72" height="72" viewBox="0 0 72 72">
    <defs>
        <filter id="36vhs1ywya">
            <feColorMatrix in="SourceGraphic" values="0 0 0 0 1.000000 0 0 0 0 0.458824 0 0 0 0 0.278431 0 0 0 1.000000 0"/>
        </filter>
    </defs>
    <g fill="none" fill-rule="evenodd">
        <g>
            <g>
                <g transform="translate(-604 -173) translate(400 141) translate(204 32)">
                    <path fill="#FF7547" d="M38.438 43.102l-2.33-1.654 2.54-3.135 1.825.707-2.035 4.082zm-3.72-2.994l-2.666-3.291v-1.065c1.657.59 3.635.617 5.328-.04v1.11l-2.662 3.286zM31 43.102l-2.035-4.082 1.822-.705 2.54 3.136L31 43.1zm-1.866-14.23V24.08c3.115.13 6.498-.776 9.285-2.52l.82.874c.462.493.76.81.906.982v5.455c0 2.985-2.428 5.413-5.413 5.413-3.503 0-5.598-2.752-5.598-5.413zm-1.837-5.693c-.12.019-.25.046-.373.077v-1.617c0-4.254 3.462-7.715 7.715-7.715 4.255 0 7.715 3.46 7.715 7.715v1.573c-.094-.022-.19-.04-.288-.052-.015-.54-.158-.692-1.497-2.117-.266-.283-.58-.618-.952-1.018-.517-.554-1.35-.658-1.985-.242-2.618 1.71-5.815 2.565-8.753 2.357-.698-.05-1.352.378-1.582 1.039zm-.087 4.84c-.632-.201-1.07-.777-1.07-1.446 0-.668.506-1.174 1.07-1.391v2.837zm15.93-1.446c0 .44-.19.856-.523 1.143-.16.139-.344.24-.548.304v-2.894c.633.202 1.072.778 1.072 1.447zm5.142 13.408l-8.978-3.477v-1.901c1.45-1.158 2.395-2.785 2.676-4.606.706-.081 1.357-.364 1.893-.823.757-.653 1.192-1.601 1.192-2.601 0-.8-.28-1.572-.786-2.186v-2.748c0-5.314-4.325-9.64-9.64-9.64C29.325 12 25 16.326 25 21.64v2.82c-.512.609-.785 1.337-.785 2.114 0 1.002.436 1.95 1.194 2.6.534.46 1.184.742 1.89.824.288 1.878 1.313 3.587 2.83 4.723v1.784l-8.986 3.485c-.17.07-4.143 1.767-4.143 6.39v6.952H45.5v-1.924h-7.413l-6.993.013.002-.013H18.924V46.38c0-3.31 2.829-4.561 2.944-4.61l5.296-2.053 2.32 4.65c.261.523.786.849 1.372.849.463 0 .748-.181 1.034-.385l1.577-1.112-.005-.008 1.256-.892 1.257.892 1.581 1.124c.273.195.567.38 1.027.38.584 0 1.111-.325 1.372-.848l2.32-4.65 5.294 2.05c.114.049 2.678 1.193 2.926 4.152l1.883-.5c-.498-3.908-3.922-5.367-4.096-5.44z"/>
                    <circle cx="53" cy="52" r="10" fill="#FFF"/>
                    <g filter="url(#36vhs1ywya)">
                        <g>
                            <path fill="#333739" d="M12 4c4.413 0 8 3.587 8 8s-3.587 8-8 8-8-3.587-8-8 3.587-8 8-8zm0 10.3c-.442 0-.8.358-.8.8 0 .442.358.8.8.8.442 0 .8-.358.8-.8 0-.442-.358-.8-.8-.8zm0-6.2c-.33 0-.6.234-.6.52v3.96c0 .286.27.52.6.52.33 0 .6-.234.6-.523V8.62c0-.287-.27-.521-.6-.521z" transform="translate(41 40)"/>
                        </g>
                    </g>
                </g>
            </g>
        </g>
    </g>
</svg>
