<svg xmlns="http://www.w3.org/2000/svg" width="40" height="40" viewBox="0 0 40 40">
    <path fill="#EC1D23" fill-rule="evenodd" d="M28.75 5a2.5 2.5 0 0 1 2.5 2.5v25a2.5 2.5 0 0 1-2.5 2.5h-17.5a2.5 2.5 0 0 1-2.5-2.5v-25a2.5 2.5 0 0 1 2.5-2.5h17.5zm0 1.5h-17.5a1 1 0 0 0-.992.875l-.008.125v25a1 1 0 0 0 .875.992l.125.008h17.5a1 1 0 0 0 .992-.875l.008-.125v-25a1 1 0 0 0-.875-.992L28.75 6.5zM26.25 28v1.5h-12.5V28h12.5zm0-4.5V25h-12.5v-1.5h12.5zm0-4.5v1.5h-12.5V19h12.5zm-7-9a.75.75 0 0 1 .75.75v4.5a.75.75 0 0 1-.75.75H14.5a.75.75 0 0 1-.75-.75v-4.5a.75.75 0 0 1 .75-.75h4.75zm7 4.5V16H21.5v-1.5h4.75zm-7.75-3h-3.25v2.999h3.25V11.5zm7.75-1.5v1.5H21.5V10h4.75z"/>
</svg>
