<svg xmlns="http://www.w3.org/2000/svg" width="24" height="24" viewBox="0 0 24 24">
    <path fill="#333739" fill-rule="evenodd" d="M14 19.401a.6.6 0 0 1-.6.6H4.597a.6.6 0 0 1-.593-.502l-.007-.097V4.598a.6.6 0 0 1 .6-.6H13.4a.6.6 0 0 1 .592.502l.008.097a.6.6 0 0 1-.6.6l-8.202.001v13.603H13.4a.6.6 0 0 1 .6.6zm5.728-6.64l-.083.09-2.404 2.405a.6.6 0 0 1-.912-.774l.063-.074 1.804-1.804h-7.6a.6.6 0 0 1 0-1.2h7.6l-1.804-1.805a.6.6 0 0 1 .775-.912l.074.064 2.404 2.404a1.2 1.2 0 0 1 .083 1.606z"/>
</svg>
