<svg xmlns="http://www.w3.org/2000/svg" xmlns:xlink="http://www.w3.org/1999/xlink" width="32" height="32" viewBox="0 0 32 32">
    <defs>
        <path id="a" d="M27.92 22.096c.085.309.01.646-.191.903l-.005.005a1.043 1.043 0 0 1-.814.383H15.808c-.318 0-.608-.136-.814-.383l-.005-.005a1.062 1.062 0 0 1-.215-.89 6.713 6.713 0 0 1 2.227-3.737 6.794 6.794 0 0 1 2.428-1.32 3.177 3.177 0 0 1-1.277-2.554 3.2 3.2 0 0 1 3.195-3.195 3.2 3.2 0 0 1 3.196 3.195 3.14 3.14 0 0 1-1.273 2.555 6.746 6.746 0 0 1 4.65 5.043zm-8.828-7.598c0 .782.393 1.497 1.067 1.904l.042.024c.005.004.01.004.014.01l.028.013c.01 0 .014.005.024.01h.028l.042.028h.014l.089.06s.004.005.01.005c.004.005.013.005.018.01h.056l.065.042.14.046c.01 0 .015.005.024.005h.014l.061.019c.005.004.01.004.014.004.005 0 .01.005.014.005.005.005.01.005.014.005h.024l.046.014c.005.004.01.004.014.004.005.005.01.005.014.005.02.005.038.005.052.01h.014c.019.004.037.004.051.009h.08l.019.01h.042l.014.004h.248c.028-.005.051-.005.07-.005.023-.004.042-.01.06-.01h.02c.009 0 .023-.004.037-.004h.014a.237.237 0 0 1 .06-.01h.015c.004-.004.01-.004.014-.004l.047-.014h.023l.042-.014h.019l.037-.014h.019l.168-.051c.019-.01.038-.014.047-.02 0 0 .005-.004.01-.004.018-.01.032-.014.046-.019.01 0 .014-.004.019-.004l.033-.014c.004 0 .01-.005.014-.005.01 0 .014-.005.023-.01.005-.004.01-.009.014-.009l.09-.06h.032l.037-.024c.014-.01.033-.019.047-.028a2.214 2.214 0 0 0 1.067-1.918 2.265 2.265 0 0 0-2.26-2.264 2.264 2.264 0 0 0-2.26 2.26zM27 22.41a.123.123 0 0 0 .023-.07l-.01-.037a5.807 5.807 0 0 0-5.385-4.594h-.078l-.029-.005a2.528 2.528 0 0 1-.266 0h-.028c-.042.005-.08.005-.108.005h-.042a5.807 5.807 0 0 0-5.385 4.594.15.15 0 0 0 .028.107c.033.042.07.042.09.042h11.1c.02 0 .052 0 .09-.042zm-13.581.042a.47.47 0 0 1 .472.464.47.47 0 0 1-.468.467H5.198c-.37 0-.697-.154-.927-.44-.229-.28-.318-.659-.243-1.01a8.266 8.266 0 0 1 2.728-4.575 8.273 8.273 0 0 1 3.237-1.69 3.828 3.828 0 0 1-1.717-3.204 3.858 3.858 0 0 1 3.855-3.855 3.858 3.858 0 0 1 3.855 3.855v.014a3.965 3.965 0 0 1-1.778 3.205c.89.238 1.74.627 2.512 1.155a.47.47 0 0 1 .122.65.47.47 0 0 1-.65.122 7.341 7.341 0 0 0-3.77-1.267h-.09l-.028-.005h-.023a3.498 3.498 0 0 1-.314 0h-.051c-.047.005-.094.005-.127.005h-.056a7.312 7.312 0 0 0-6.793 5.787.286.286 0 0 0 .056.229.233.233 0 0 0 .197.093h8.225zm-4.206-9.988c0 1.015.514 1.942 1.384 2.48.01.009.024.014.033.023.01.01.024.014.033.019.037.014.06.028.08.037h.037l.051.033h.02l.032.023.15.061v.01h.084l.051.051h.019l.047.023h.028l.065.033c.01 0 .019.005.028.005h.005l.042.01c.01 0 .024 0 .038.004.009 0 .014.005.023.005.01 0 .023 0 .037.004h.01l.042.01c.01 0 .019.004.028.004.005.005.01.005.014.005h.014c.019 0 .037 0 .051.005.015.004.02.004.029.004.018 0 .037 0 .051.005H11.841l.019.01h.042l.018.004h.351c.038-.005.07-.005.09-.005h.004a.54.54 0 0 1 .075-.009c.01-.005.018-.005.028-.005.014 0 .028-.004.047-.004.004-.005.014-.005.023-.005.019 0 .037-.005.06-.005.01-.004.015-.004.024-.004h.01c.009 0 .018-.005.028-.005l.042-.01h.01c.008 0 .018-.004.027-.004l.042-.01h.024l.051-.014h.019c.023-.009.047-.018.07-.023.023-.01.051-.014.08-.023h.009l.023-.01a.576.576 0 0 1 .103-.037.645.645 0 0 1 .075-.028c.005 0 .01-.005.014-.005.014-.01.028-.014.042-.019h.005c.01-.004.014-.004.019-.009 0-.005.004-.005.004-.005.019-.009.033-.018.047-.023.014-.005.028-.014.042-.019l.07-.032h.01l.028-.014c.014-.01.033-.02.047-.029a.252.252 0 0 0 .06-.032 3.03 3.03 0 0 0 1.427-2.49 2.924 2.924 0 0 0-2.919-2.91c-1.61 0-2.92 1.31-2.92 2.92z"/>
    </defs>
    <g fill="none" fill-rule="evenodd">
        <mask id="b" fill="#fff">
            <use xlink:href="#a"/>
        </mask>
        <g fill="#fff" mask="url(#b)">
            <path d="M0 0h32v32H0z"/>
        </g>
    </g>
</svg>
