<?xml version="1.0" encoding="UTF-8"?>
<svg width="40px" height="40px" viewBox="0 0 40 40" version="1.1" xmlns="http://www.w3.org/2000/svg" xmlns:xlink="http://www.w3.org/1999/xlink">
    <!-- Generator: Sketch 54.1 (76490) - https://sketchapp.com -->
    <title>Icon/40/Notes</title>
    <desc>Created with Sketch.</desc>
    <g id="Notes" stroke="none" stroke-width="1" fill="none" fill-rule="evenodd">
        <g id="6_Notes_Notification_Successful" transform="translate(-1751.000000, -243.000000)" fill="#EC1D23">
            <g id="Icon/Page/Notes" transform="translate(1751.000000, 243.000000)">
                <g id="Notes-icon">
                    <g transform="translate(10.000000, 5.000000)">
                        <path d="M9.99822418,0 C8.99926682,0 8.17971949,0.841306667 8.17971949,1.86666667 L6.43225014,1.86666667 C5.92211956,1.86666667 5.50505097,2.28533611 5.46616952,2.8 L1.36387852,2.8 C0.606420034,2.8 0,3.45978789 0,4.23828123 L0,26.5635421 C0,27.3421288 0.606420034,28 1.36387852,28 L18.6361215,28 C19.393576,28 20,27.3421288 20,26.5635421 L20,4.23828123 C20,3.45978789 19.3935751,2.8 18.6361215,2.8 L14.5302789,2.8 C14.4913965,2.28533611 14.0743288,1.86666667 13.5641982,1.86666667 L11.8167289,1.86666667 C11.8167289,0.841306667 10.9971806,0 9.99822418,0 Z M9.99822418,0.933333333 C10.5057643,0.933333333 10.9074765,1.34577333 10.9074765,1.86666667 C10.9068737,1.97204 10.8888696,2.07716255 10.8541998,2.17656245 C10.8045804,2.31943124 10.8256913,2.47814076 10.9108066,2.60212577 C10.9959219,2.72611079 11.1344247,2.79990597 11.2821876,2.8 L13.5641982,2.8 C13.6118612,2.8 13.6352336,2.82256044 13.6352336,2.87109377 L13.6352336,3.19010421 C13.6270208,3.24079775 13.6270208,3.29253558 13.6352336,3.34322912 L13.6352336,5.52526044 C13.6352336,5.57379377 13.6118703,5.59817711 13.5641982,5.59817711 L6.43225014,5.59817711 C6.38458713,5.59817711 6.3612148,5.57379377 6.3612148,5.52526044 L6.3612148,3.33958333 C6.36903862,3.29008057 6.36903862,3.23960698 6.3612148,3.19010421 L6.3612148,2.87109377 C6.3612148,2.82256044 6.38457804,2.8 6.43225014,2.8 L8.71426076,2.8 C8.86202368,2.79990597 9.00052645,2.72611079 9.08564175,2.60212577 C9.17075705,2.47814076 9.19186799,2.31943124 9.14224857,2.17656245 C9.10738783,2.07660255 9.089381,1.97077711 9.08897184,1.86484377 C9.08988109,1.34469711 9.49128145,0.933333333 9.99822418,0.933333333 Z M1.36387852,3.73333333 L5.45196245,3.73333333 L5.45196245,4.66666667 L3.31202269,4.66666667 C2.49369421,4.66666667 1.81850469,5.35483079 1.81850469,6.19427088 L1.81850469,13.3054684 L1.81850469,17.28125 L1.81850469,21.4666667 L2.72775704,21.4666667 L2.72775704,17.28125 L2.72775704,13.3054684 L2.72775704,6.19427088 C2.72775704,5.85864412 2.97901238,5.6 3.31202269,5.6 L5.46616952,5.6 C5.50521372,6.11449888 5.92223231,6.53333333 6.43225014,6.53333333 L13.5641982,6.53333333 C14.0742161,6.53333333 14.4912337,6.11449888 14.5302789,5.6 L16.6879774,5.6 C17.0209883,5.6 17.272243,5.85864412 17.272243,6.19427088 L17.272243,21.2315105 L15.9083644,21.2315105 C15.3040862,21.2315105 14.8748919,21.6073928 14.706091,21.9497395 C14.5372901,22.2920861 14.5444859,22.6205728 14.5444859,22.6205728 L14.5444859,24.2721351 L3.31202269,24.2721351 C2.97901238,24.2721351 2.72775704,24.0153144 2.72775704,23.6796877 L2.72775704,22.4 L1.81850469,22.4 L1.81850469,23.6796877 C1.81850469,24.5191277 2.49369412,25.2054684 3.31202269,25.2054684 L14.7895576,25.2054684 C14.911611,25.2059357 15.0287222,25.1560114 15.1145444,25.0669272 L17.2527077,22.8447912 L18.0483035,22.0281245 C18.127083,21.9466865 18.1738684,21.838308 18.1797195,21.7236983 C18.1806865,21.7127853 18.1812788,21.7018408 18.1814953,21.6908851 C18.1814965,21.6902775 18.1814965,21.6896699 18.1814953,21.6890623 C18.1814965,21.6884547 18.1814965,21.6878471 18.1814953,21.6872395 L18.1814953,6.19427088 C18.1814953,5.35483079 17.5063063,4.66666667 16.6879774,4.66666667 L14.5444859,4.66666667 L14.5444859,3.73333333 L18.6361215,3.73333333 C18.8860822,3.73333333 19.0907477,3.94148123 19.0907477,4.23828123 L19.0907477,26.5635421 C19.0907477,26.8605279 18.886084,27.0666667 18.6361215,27.0666667 L1.36387852,27.0666667 C1.11390359,27.0666667 0.909252347,26.8605279 0.909252347,26.5635421 L0.909252347,4.23828123 C0.909252347,3.94148123 1.11390359,3.73333333 1.36387852,3.73333333 Z M4.0898597,7.46666667 C3.838787,7.46669244 3.63525863,7.67561112 3.63523353,7.93333333 L3.63523353,11.6666667 C3.63525863,11.9243889 3.838787,12.1333076 4.0898597,12.1333333 L7.72686909,12.1333333 C7.97794179,12.1333076 8.18147016,11.9243889 8.18149526,11.6666667 L8.18149526,7.93333333 C8.18147016,7.67561112 7.97794179,7.46669244 7.72686909,7.46666667 L4.0898597,7.46666667 Z M9.09074761,7.46666667 L9.09074761,8.4 L16.4375775,8.4 L16.4375775,7.46666667 L9.09074761,7.46666667 Z M4.54448587,8.4 L7.27224291,8.4 L7.27224291,11.2 L4.54448587,11.2 L4.54448587,8.4 Z M9.09074761,9.33333333 L9.09074761,10.2666667 L16.4375775,10.2666667 L16.4375775,9.33333333 L9.09074761,9.33333333 Z M9.09074761,11.2 L9.09074761,12.1333333 L16.4375775,12.1333333 L16.4375775,11.2 L9.09074761,11.2 Z M3.63523353,13.0666667 L3.63523353,14 L16.3647664,14 L16.3647664,13.0666667 L3.63523353,13.0666667 Z M3.63523353,14.9333333 L3.63523353,15.8666667 L16.3647664,15.8666667 L16.3647664,14.9333333 L3.63523353,14.9333333 Z M3.63523353,16.8 L3.63523353,17.7333333 L16.3647664,17.7333333 L16.3647664,16.8 L3.63523353,16.8 Z M3.63523353,18.6666667 L3.63523353,19.6 L16.3647664,19.6 L16.3647664,18.6666667 L3.63523353,18.6666667 Z M3.63523353,20.5333333 L3.63523353,21.4666667 L9.99999995,21.4666667 L9.99999995,20.5333333 L3.63523353,20.5333333 Z M15.9083644,22.1648439 L16.6275967,22.1648439 L16.5405785,22.2559895 L15.4537383,23.3697912 L15.4537383,22.6205728 C15.4537383,22.6205728 15.4591956,22.48946 15.5176696,22.3708333 C15.5761618,22.2522067 15.6034667,22.1648439 15.9083644,22.1648439 Z" id="Shape" fill-rule="nonzero"></path>
                    </g>
                </g>
            </g>
        </g>
    </g>
</svg>