<?xml version="1.0" encoding="UTF-8"?>
<svg width="72px" height="72px" viewBox="0 0 72 72" version="1.1" xmlns="http://www.w3.org/2000/svg" xmlns:xlink="http://www.w3.org/1999/xlink">
    <!-- Generator: Sketch 54.1 (76490) - https://sketchapp.com -->
    <title>Icon/72px/NoteDelete</title>
    <desc>Created with Sketch.</desc>
    <defs>
        <path d="M11.9999999,3.99999995 C7.58124997,3.99999995 3.99999995,7.58124997 3.99999995,11.9999999 C3.99999995,16.41875 7.58124997,20.0000001 11.9999999,19.9999999 C16.41875,20.0000001 20.0000001,16.41875 19.9999999,11.9999999 C20.0000001,7.58124997 16.41875,3.99999995 11.9999999,3.99999995 Z M15.778125,14.89375 C16.021875,15.1375 16.021875,15.534375 15.778125,15.778125 C15.65625,15.9 15.496875,15.9625 15.3375,15.9625 C15.178125,15.9625 15.01875,15.9 14.896875,15.778125 L12,12.884375 L9.10624998,15.778125 C8.98437498,15.9 8.82499998,15.9625 8.66562498,15.9625 C8.50624998,15.9625 8.34687498,15.9 8.22499998,15.778125 C7.98124997,15.534375 7.98124997,15.1375 8.22499998,14.89375 L11.11875,12 L8.22499998,9.10624998 C7.98124997,8.86249998 7.98124997,8.46562498 8.22499998,8.22187498 C8.46874998,7.97812497 8.86562498,7.97812497 9.10937498,8.22187498 L12.003125,11.115625 L14.896875,8.22187498 C15.140625,7.97812497 15.5375,7.97812497 15.78125,8.22187498 C16.025,8.46562498 16.025,8.86249998 15.78125,9.10624998 L12.884375,12 L15.778125,14.89375 Z" id="path-1"></path>
    </defs>
    <g id="Notes" stroke="none" stroke-width="1" fill="none" fill-rule="evenodd">
        <g id="8_Notes_Delete" transform="translate(-959.000000, -344.000000)">
            <g id="Icon/72px/NoteDelete" transform="translate(959.000000, 344.000000)">
                <g>
                    <g id="Note-Save-01" stroke-width="1" transform="translate(15.000000, 13.000000)">
                        <path d="M30.1440655,42 L3.59815032,42 C1.88880726,41.9984705 0.503062656,40.6134063 0.5,38.903371 L0.5,3.09848217 C0.502042404,1.38772307 1.88808528,0.0015317192 3.59815032,0 L20.6782669,0 C21.4977447,0.00422556945 22.2814858,0.336199677 22.8548449,0.9219467 L33.5784276,11.6508119 C34.1639368,12.2244038 34.4957761,13.0084633 34.5,13.8282739 L34.5,30.4789093 C34.5,31.0929922 34.0023895,31.5908048 33.3885559,31.5908048 C32.7747223,31.5908048 32.2771119,31.0929922 32.2771119,30.4789093 L32.2771119,13.8319802 C32.2720925,13.6023558 32.1745636,13.3844972 32.0066605,13.2278503 L21.2821515,2.49435228 C21.1255682,2.32638101 20.9077981,2.22881244 20.6782669,2.22379103 L3.59815032,2.22379103 C3.11547949,2.22430173 2.72432482,2.61561529 2.72381432,3.09848217 L2.72381432,38.903371 C2.72534406,39.385514 3.1162009,39.7757012 3.59815032,39.776209 L30.1440655,39.776209 C30.7578991,39.776209 31.2555095,40.2740215 31.2555095,40.8881045 C31.2555095,41.5021874 30.7578991,42 30.1440655,42 Z" id="Path" fill="#FF835A" fill-rule="nonzero"></path>
                        <path d="M16.3923077,16 L6.60769231,16 C5.99593074,16 5.5,15.5522847 5.5,15 C5.5,14.4477153 5.99593074,14 6.60769231,14 L16.3923077,14 C17.0040693,14 17.5,14.4477153 17.5,15 C17.5,15.5522847 17.0040693,16 16.3923077,16 Z" id="Path" fill="#FF835A" fill-rule="nonzero"></path>
                        <path d="M28.3713849,22 L6.6286151,22 C6.00529819,22 5.5,21.5522847 5.5,21 C5.5,20.4477153 6.00529819,20 6.6286151,20 L28.3713849,20 C28.9947018,20 29.5,20.4477153 29.5,21 C29.5,21.5522847 28.9947018,22 28.3713849,22 Z" id="Path" fill="#FF835A" fill-rule="nonzero"></path>
                        <path d="M28.3713849,28 L6.6286151,28 C6.00529819,28 5.5,27.5522847 5.5,27 C5.5,26.4477153 6.00529819,26 6.6286151,26 L28.3713849,26 C28.9947018,26 29.5,26.4477153 29.5,27 C29.5,27.5522847 28.9947018,28 28.3713849,28 L28.3713849,28 Z" id="Path" fill="#FF835A" fill-rule="nonzero"></path>
                        <path d="M38,49 C32.4771525,49 28,44.5228475 28,39 C28,33.4771525 32.4771525,29 38,29 C43.5228475,29 48,33.4771525 48,39 C47.9931784,44.5200194 43.5200194,48.9931784 38,49 Z M37.5,31.0018516 C33.3578644,31.0018516 30,34.3593015 30,38.5009258 C30,42.6425501 33.3578644,46 37.5,46 C41.6421356,46 45,42.6425501 45,38.5009258 C44.9959186,34.3606932 41.6407426,31.0051031 37.5,31 L37.5,31.0018516 Z" id="Shape" fill="#FF714F" fill-rule="nonzero"></path>
                        <path d="M40.7320835,43.9999996 C40.3965431,44.0002635 40.0746493,43.8671684 39.8372545,43.6300102 L33.3710869,37.163101 C32.8763044,36.6682617 32.8763044,35.8659687 33.3710869,35.3711295 C33.8658694,34.8762902 34.6680704,34.8762902 35.162853,35.3711295 L41.6290205,41.8380386 C41.9911641,42.1998207 42.0995679,42.7442377 41.9036318,43.2171696 C41.7076957,43.6901015 41.2460548,43.9982943 40.7341915,43.9978914 L40.7320835,43.9999996 Z" id="Path" fill="#FF714F" fill-rule="nonzero"></path>
                        <g id="Path-2" transform="translate(33.000000, 35.000000)" fill="#FF714F" fill-rule="nonzero">
                            <path d="M1.26580445,8.99998926 C0.753942775,9.00039222 0.292303389,8.69212854 0.0963678981,8.21908793 C-0.0995675927,7.74604732 0.00883586177,7.20150511 0.370978267,6.83963985 L6.83712506,0.371243723 C7.1571922,0.0510651961 7.62370026,-0.073978765 8.06092014,0.0432146929 C8.49814003,0.160408151 8.83964763,0.502034552 8.95680033,0.939406528 C9.07395304,1.3767785 8.94895256,1.84344884 8.62888537,2.16362733 L2.16273858,8.63202345 C1.92448301,8.86898099 1.60177117,9.00137302 1.26580445,8.99998926 L1.26580445,8.99998926 Z" id="Path"></path>
                        </g>
                        <path d="M23.6494114,15 C21.9109001,14.997938 20.5020758,13.5985279 20.5,11.8716338 L20.5,2.12261945 C20.5,1.50261385 21.005995,1 21.6301715,1 C22.2543481,1 22.7603431,1.50261385 22.7603431,2.12261945 L22.7603431,11.8716338 C22.7608622,12.3591578 23.1586077,12.7542455 23.6494114,12.7547611 L33.3698285,12.7547611 C33.994005,12.7547611 34.5,13.257375 34.5,13.8773806 C34.5,14.4973862 33.994005,15 33.3698285,15 L23.6494114,15 Z" id="Path" fill="#FF835A" fill-rule="nonzero"></path>
                    </g>
                    <circle id="Oval" fill="#FFFFFF" cx="53" cy="52" r="11"></circle>
                    <g id="Group-3" stroke-width="1" transform="translate(41.000000, 39.908500)">
                        <g id="Icon/24/Solid/Close" transform="translate(0.000000, 0.091500)">
                            <mask id="mask-2" fill="white">
                                <use xlink:href="#path-1"></use>
                            </mask>
                            <g id="CloseSolid" fill-rule="nonzero"></g>
                            <g id="Colour/Basic/2_Secondary" mask="url(#mask-2)" fill="#FF835A" fill-rule="evenodd">
                                <rect id="Rectangle-Copy" x="0" y="0" width="24" height="24"></rect>
                            </g>
                        </g>
                    </g>
                </g>
            </g>
        </g>
    </g>
</svg>