<svg xmlns="http://www.w3.org/2000/svg" xmlns:xlink="http://www.w3.org/1999/xlink" width="24" height="24" viewBox="0 0 24 24">
    <defs>
        <path id="a" d="M18.805 17.837l-5.838-5.848 5.808-5.817a.684.684 0 0 0-.967-.969L12 11.021 6.198 5.21a.683.683 0 1 0-.964.968l5.803 5.812-5.833 5.84a.684.684 0 0 0 .967.968l5.832-5.842 5.838 5.848a.68.68 0 0 0 .483.2.68.68 0 0 0 .483-.2.688.688 0 0 0-.002-.966z"/>
    </defs>
    <g fill="none" fill-rule="evenodd">
        <mask id="b" fill="#fff">
            <use xlink:href="#a"/>
        </mask>
        <g fill="#fff" mask="url(#b)">
            <path d="M0 0h24v24H0z"/>
        </g>
    </g>
</svg>
