<svg xmlns="http://www.w3.org/2000/svg" width="24" height="24" viewBox="0 0 24 24">
    <path fill="#BBB" fill-rule="evenodd" d="M12 4a8 8 0 1 1 0 16 8 8 0 0 1 0-16zm-.186 11.202a.9.9 0 1 0 0 1.798.9.9 0 0 0 0-1.798zM11.852 7c-.95 0-1.717.257-2.301.774-.584.517-.899 1.143-.945 1.883l-.005.05-.001.051a.803.803 0 0 0 1.6.101l.047-.187c.118-.423.307-.745.567-.966.3-.251.668-.378 1.111-.378.46 0 .824.12 1.094.361.272.238.408.527.408.863 0 .242-.077.466-.23.668-.1.129-.403.399-.912.81-.508.413-.845.785-1.014 1.113-.17.331-.255.75-.255 1.261l.007.416.007.107a.792.792 0 0 0 1.574-.107v-.173c.003-.386.043-.66.12-.823.09-.185.317-.432.684-.735.71-.59 1.172-1.057 1.39-1.399.217-.341.324-.706.324-1.088 0-.694-.295-1.299-.886-1.82-.59-.52-1.385-.782-2.384-.782z"/>
</svg>
