<svg xmlns="http://www.w3.org/2000/svg" xmlns:xlink="http://www.w3.org/1999/xlink" width="24" height="24" viewBox="0 0 24 24">
    <defs>
        <path id="a" d="M11.36 12.619H7.436a.627.627 0 0 1-.625-.625c0-.344.282-.625.625-.625h3.922V7.444c0-.344.282-.625.625-.625.344 0 .625.281.625.625v3.925h3.922c.344 0 .625.281.625.625a.627.627 0 0 1-.625.625H12.61v3.919a.625.625 0 1 1-1.25 0v-3.92zM12 5.25A6.758 6.758 0 0 0 5.25 12 6.758 6.758 0 0 0 12 18.75 6.758 6.758 0 0 0 18.75 12 6.758 6.758 0 0 0 12 5.25zM12 4c4.413 0 8 3.587 8 8s-3.587 8-8 8-8-3.587-8-8 3.587-8 8-8z"/>
    </defs>
    <use fill="#ec1d23" fill-rule="evenodd" xlink:href="#a"/>
</svg>
