<svg xmlns="http://www.w3.org/2000/svg" width="48" height="48" viewBox="0 0 48 48">
    <g fill="#EC1D23" fill-rule="nonzero">
        <path d="M24 27a1.19 1.19 0 0 1-.552-.135l-10.853-5.687a1.088 1.088 0 0 1-.595-.942 1.084 1.084 0 0 1 .563-.959l10.853-6.124c.36-.204.808-.204 1.168 0l10.853 6.124c.355.2.57.567.563.96a1.088 1.088 0 0 1-.595.94l-10.853 5.688A1.19 1.19 0 0 1 24 27zm-8.539-6.816L24 24.659l8.539-4.475L24 15.364l-8.539 4.82z"/>
        <path d="M15.408 20L24 24.955 32.592 20 24 15.045 15.408 20zm-3.306 0l-2.924-4.406a1.06 1.06 0 0 1-.146-.847c.073-.29.266-.538.532-.685L20.305 8.14a1.128 1.128 0 0 1 1.49.372L24 11.972l2.205-3.46a1.128 1.128 0 0 1 1.49-.372l10.74 5.922c.267.147.46.395.533.685.073.29.02.597-.146.847L35.898 20l2.924 4.406c.166.25.219.557.146.847-.073.29-.266.538-.532.685L36 27.28v5.948c0 .398-.228.765-.595.957L24.568 39.87a.906.906 0 0 1-.244.086A1.9 1.9 0 0 1 24 40c-.193 0-.383-.046-.552-.135l-10.853-5.679A1.085 1.085 0 0 1 12 33.23V27.28l-2.436-1.343a1.087 1.087 0 0 1-.532-.685 1.06 1.06 0 0 1 .146-.847L12.102 20zm2.191 8.545v4.038l8.56 4.48v-7.235l-1.058 1.66a1.132 1.132 0 0 1-1.49.371l-6.012-3.314zm10.853 1.283v7.234l8.561-4.48v-4.037l-6.012 3.315a1.132 1.132 0 0 1-1.49-.371l-1.059-1.661zM13.721 18.454l8.625-4.973-1.876-2.943-8.786 4.845 2.037 3.071zm11.932-4.973l8.623 4.973 2.039-3.071-8.786-4.845-1.876 2.943zm.001 13.038l1.876 2.943 8.786-4.844-2.04-3.072-8.622 4.973zm-13.97-1.901l8.786 4.844 1.875-2.943-8.622-4.973-2.04 3.072z"/>
    </g>
</svg>
