<svg xmlns="http://www.w3.org/2000/svg" width="48" height="48" viewBox="0 0 48 48">
    <g fill="#EC1D23" fill-rule="nonzero">
        <path d="M23.92 23.712a5.76 5.76 0 1 1 5.76-5.76 5.766 5.766 0 0 1-5.76 5.76zm0-9.36a3.6 3.6 0 1 0 0 7.2 3.6 3.6 0 0 0 0-7.2z"/>
        <path d="M30.544 31.056h-13.32A1.224 1.224 0 0 1 16 29.832v-3.233a3.972 3.972 0 0 1 3.967-3.967h7.834a3.972 3.972 0 0 1 3.967 3.967v3.233c0 .676-.548 1.224-1.224 1.224zm-12.384-2.16h11.448v-2.297a1.81 1.81 0 0 0-1.807-1.807h-7.834a1.81 1.81 0 0 0-1.807 1.807v2.297zM30.688 35.232H17.08a1.08 1.08 0 0 1 0-2.16h13.608a1.08 1.08 0 0 1 0 2.16z"/>
        <path d="M34.328 39.408H13.512a2.123 2.123 0 0 1-2.12-2.12V10.136a2.123 2.123 0 0 1 2.12-2.12h20.816c1.17.002 2.118.95 2.12 2.12v27.152a2.123 2.123 0 0 1-2.12 2.12zm-20.776-2.16h20.736V10.176H13.552v27.072z"/>
    </g>
</svg>
