<svg xmlns="http://www.w3.org/2000/svg" width="48" height="48" viewBox="0 0 48 48">
    <g fill="none" fill-rule="nonzero">
        <path fill="#EC1D23" d="M36.936 32.989a1.2 1.2 0 0 1-.906-1.987 10.356 10.356 0 0 0-.106-13.697 1.2 1.2 0 0 1 1.787-1.6 12.756 12.756 0 0 1 .129 16.871 1.2 1.2 0 0 1-.904.413z"/>
        <path fill="#EC1D23" d="M33.109 30.465a1.2 1.2 0 0 1-.81-2.085 5.44 5.44 0 0 0-.101-8.118 1.2 1.2 0 1 1 1.576-1.81 7.84 7.84 0 0 1 .146 11.698 1.2 1.2 0 0 1-.811.315z"/>
        <path fill="#FFF" d="M15.894 29.44v4.2a1.88 1.88 0 0 1-1.88 1.88h-.306a1.88 1.88 0 0 1-1.88-1.88V28"/>
        <path fill="#EC1D23" d="M14.014 36.72h-.306a3.084 3.084 0 0 1-3.08-3.08V28a1.2 1.2 0 1 1 2.4 0v5.64c0 .375.305.68.68.68h.306a.68.68 0 0 0 .68-.68v-4.2a1.2 1.2 0 1 1 2.4 0v4.2a3.083 3.083 0 0 1-3.08 3.08z"/>
        <path fill="#EC1D23" d="M26.966 34.045c-.25 0-.5-.041-.738-.121L8.03 27.804a2.32 2.32 0 0 1-.224-4.312l18.198-8.306a2.32 2.32 0 0 1 3.285 2.112v14.426a2.32 2.32 0 0 1-2.32 2.32h-.003zM8.985 25.593l17.904 6.021V17.42L8.985 25.593z"/>
    </g>
</svg>
