<svg xmlns="http://www.w3.org/2000/svg" xmlns:xlink="http://www.w3.org/1999/xlink" width="24" height="24" viewBox="0 0 24 24">
    <defs>
        <path id="a" d="M12.162 6.66l2.009-1.469a.635.635 0 0 0 .256-.42.648.648 0 0 0-.54-.737.648.648 0 0 0-.48.119L9.614 6.935l-.01.006-.002.003a.772.772 0 0 0-.297.605c0 .237.116.465.306.609l3.793 2.788c.109.08.243.125.383.125a.644.644 0 0 0 .384-1.163l-2.67-1.96c.065-.003.131-.003.193-.003a5.38 5.38 0 0 1 5.374 5.374 5.38 5.38 0 0 1-5.374 5.374A5.38 5.38 0 0 1 6.32 13.32a.65.65 0 0 0-.648-.648.652.652 0 0 0-.649.648 6.682 6.682 0 0 0 6.674 6.675 6.682 6.682 0 0 0 6.675-6.675 6.684 6.684 0 0 0-6.21-6.659z"/>
    </defs>
    <use fill="#403838" fill-rule="evenodd" xlink:href="#a"/>
</svg>
