<svg xmlns="http://www.w3.org/2000/svg" xmlns:xlink="http://www.w3.org/1999/xlink" width="32" height="32" viewBox="0 0 32 32">
    <defs>
        <path id="a" d="M26.749 6.012a1.66 1.66 0 0 1 1.2 1.597v18.626c0 .518-.248 1.013-.659 1.326-.285.22-.635.336-.994.336a1.63 1.63 0 0 1-.453-.06L19.717 26.1a.455.455 0 0 1-.262.079.48.48 0 0 1-.28-.093l-6.159 1.75a.344.344 0 0 1-.065.02c-.042.013-.084.018-.13.027-.005 0-.015.005-.02.005a.467.467 0 0 1-.644-.037c-.014-.005-.028-.005-.042-.01L5.251 25.89c-.71-.2-1.204-.859-1.204-1.596V5.658c0-.519.247-1.014.663-1.322a1.638 1.638 0 0 1 1.443-.275l6.41 1.82 6.416-1.82.06-.014a1.28 1.28 0 0 1 .131-.024c.02-.004.038-.009.056-.009.07-.01.136-.014.201-.014h.01c.065 0 .13.005.2.014h.01c.009 0 .023.005.037.005h.005c.046.009.093.018.135.028l.06.014 6.865 1.951zM4.98 24.292c0 .318.219.612.523.701l6.527 1.854V6.704L5.91 4.967a.713.713 0 0 0-.63.112c-.005.004-.01.004-.015.009a.712.712 0 0 0-.284.57v18.635zm7.984 2.587l6.023-1.713V5.027l-6.023 1.71v20.142zm14.05-19.27v-.004a.715.715 0 0 0-.523-.696l-6.57-1.868v20.143L26.1 26.94h.004a.739.739 0 0 0 .192.023.683.683 0 0 0 .425-.14c0-.004.004-.004.004-.004a.75.75 0 0 0 .29-.584V7.609zm-16.74 14.788c.248.07.393.327.318.579a.464.464 0 0 1-.574.322l-2.835-.803a.473.473 0 0 1-.322-.579.473.473 0 0 1 .58-.322l2.833.803zm0-2.335c.248.07.393.327.318.58a.464.464 0 0 1-.574.321l-2.835-.803a.473.473 0 0 1-.322-.579.473.473 0 0 1 .58-.322l2.833.803zm0-2.334c.248.07.393.326.318.579a.464.464 0 0 1-.574.322l-2.835-.803a.473.473 0 0 1-.322-.58.473.473 0 0 1 .58-.321l2.833.803zm-3.09-2.242a.465.465 0 0 1-.341-.448V8.875a.467.467 0 0 1 .597-.449l2.834.804c.201.056.341.242.337.448v6.163a.467.467 0 0 1-.593.448l-2.835-.803zm.597-5.995v5.192l1.9.542v-5.192l-1.9-.542zm6.803.747a.47.47 0 0 1-.453-.336.468.468 0 0 1 .322-.579l2.835-.812a.468.468 0 0 1 .257.901l-2.835.807a.393.393 0 0 1-.126.02zm2.704 11.45a.46.46 0 0 1 .574.317.468.468 0 0 1-.322.579l-2.834.807a.468.468 0 0 1-.252-.901l2.834-.803zm0-2.335a.46.46 0 0 1 .574.317.468.468 0 0 1-.322.579l-2.834.808a.468.468 0 0 1-.252-.901l2.834-.803zm0-2.335a.46.46 0 0 1 .574.317.468.468 0 0 1-.322.58l-2.834.807a.468.468 0 0 1-.252-.901l2.834-.803zm0-2.335a.46.46 0 0 1 .574.318.468.468 0 0 1-.322.579l-2.834.808a.468.468 0 0 1-.252-.901l2.834-.804zM24.81 9.51c.247.07.392.327.317.579a.464.464 0 0 1-.574.322l-2.834-.808a.473.473 0 0 1-.322-.579.473.473 0 0 1 .579-.322l2.834.808zm0 2.334c.247.07.392.327.317.58a.464.464 0 0 1-.574.322l-2.834-.808a.473.473 0 0 1-.322-.58.473.473 0 0 1 .579-.321l2.834.807zm0 2.335c.247.07.392.327.317.579a.464.464 0 0 1-.574.322l-2.834-.808a.473.473 0 0 1-.322-.579.473.473 0 0 1 .579-.322l2.834.808zm0 2.335c.2.056.34.242.336.448v6.163a.467.467 0 0 1-.593.449l-2.834-.808a.465.465 0 0 1-.341-.448v-6.164a.467.467 0 0 1 .598-.448l2.834.808zm-.593 5.995v-5.192l-1.9-.542v5.192l1.9.542z"/>
    </defs>
    <g fill="none" fill-rule="evenodd">
        <mask id="b" fill="#fff">
            <use xlink:href="#a"/>
        </mask>
        <g fill="#fff" mask="url(#b)">
            <path d="M0 0h32v32H0z"/>
        </g>
    </g>
</svg>
