<?xml version="1.0" encoding="UTF-8"?>
<svg width="24px" height="24px" viewBox="0 0 24 24" version="1.1" xmlns="http://www.w3.org/2000/svg" xmlns:xlink="http://www.w3.org/1999/xlink">
    <!-- Generator: Sketch 54.1 (76490) - https://sketchapp.com -->
    <title>Icon/24/RightArrow</title>
    <desc>Created with Sketch.</desc>
    <defs>
        <path d="M17.3105059,12.7782101 L4.80933848,12.7782101 C4.37976649,12.7782101 4.03112835,12.429572 4.03112835,12 C4.03112835,11.570428 4.37976649,11.2217899 4.80933848,11.2217899 L17.3105059,11.2217899 L11.4490272,5.36031124 C11.1439689,5.05525287 11.1439689,4.56342408 11.4490272,4.25836571 C11.7540856,3.95330734 12.2459144,3.95330734 12.5509728,4.25836571 L19.7385214,11.4490272 C19.8910506,11.6015564 19.9688716,11.8007782 19.9688716,11.9968872 C19.9688716,12.196109 19.8941635,12.3953307 19.7416343,12.5478599 L12.5509728,19.7416343 C12.2459144,20.0466927 11.7540856,20.0466927 11.4490272,19.7416343 C11.1439689,19.4365759 11.1439689,18.9447471 11.4490272,18.6396888 L17.3105059,12.7782101 Z" id="path-1"></path>
    </defs>
    <g id="Notes" stroke="none" stroke-width="1" fill="none" fill-rule="evenodd">
        <g id="7_Notes_Profile_Saved" transform="translate(-1690.000000, -397.000000)">
            <g id="Icon/System/RightArrow" transform="translate(1690.000000, 397.000000)">
                <g id="Icon/24/Right">
                    <mask id="mask-2" fill="white">
                        <use xlink:href="#path-1"></use>
                    </mask>
                    <g id="Combined-Shape" fill-rule="nonzero"></g>
                    <g id="Colour/Basic/1_Primary" mask="url(#mask-2)" fill="#EC1D23" fill-rule="evenodd">
                        <rect id="Rectangle" x="0" y="0" width="24" height="24"></rect>
                    </g>
                </g>
            </g>
        </g>
    </g>
</svg>