<?xml version="1.0" encoding="UTF-8"?>
<svg width="24px" height="24px" viewBox="0 0 24 24" version="1.1" xmlns="http://www.w3.org/2000/svg" xmlns:xlink="http://www.w3.org/1999/xlink">
    <!-- Generator: Sketch 59.1 (86144) - https://sketch.com -->
    <title>Icon/24/Close/Solid Copy</title>
    <desc>Created with Sketch.</desc>
    <g id="Icon/24/Close//Solid-Copy" stroke="none" stroke-width="1" fill="none" fill-rule="evenodd">
        <path d="M12,3.99999995 C16.41875,3.99999995 20,7.58124997 20,12 C20,16.41875 16.41875,20 12,20 C7.58124997,20 3.99999995,16.41875 3.99999995,12 C3.99999995,7.58124997 7.58124997,3.99999995 12,3.99999995 Z M13.9060169,7.91334858 C13.5552761,7.56260781 12.9852394,7.56260781 12.6344986,7.91334858 L12.6344986,7.91334858 L9.32989185,11.2179554 C9.12139414,11.4241795 9.00550965,11.7042336 9.00550965,11.9998047 C9.00550965,12.2938974 9.12186119,12.5736233 9.32989185,12.781654 L9.32989185,12.781654 L12.6328777,16.0862023 C12.8040591,16.2573837 13.0325087,16.349707 13.2694766,16.349707 C13.5064444,16.349707 13.734894,16.2573837 13.9060169,16.0862608 C14.2567577,15.73552 14.2567577,15.1654833 13.9060169,14.8147425 L13.9060169,14.8147425 L11.0925153,11.9998047 L13.9060801,9.1848037 C14.2567577,8.83412609 14.2567577,8.26408935 13.9060169,7.91334858 Z" id="Combined-Shape" fill="#FFFFFF"></path>
    </g>
</svg>