<svg xmlns="http://www.w3.org/2000/svg" width="40" height="40" viewBox="0 0 40 40">
    <path fill="#EC1D23" fill-rule="evenodd" d="M20 5l.361.006C26 5.196 30.5 9.7 30.5 15.5 30.5 20.75 27 27.25 20 35l-.614-.705C17.139 31.662 9.5 22.217 9.5 15.5c0-5.7 4.526-10.329 10.184-10.495L20 5zm-.014 1.499H20c-4.977 0-9 4.024-9 9.001 0 1.565.498 3.461 1.442 5.604.868 1.969 2.081 4.08 3.551 6.26a67.587 67.587 0 0 0 3.531 4.751l.493.6.179-.203c5.755-6.675 8.664-12.266 8.8-16.69L29 15.5c0-4.832-3.646-8.667-8.361-8.979l-.303-.015-.35-.007zM20 11.75c2.07 0 3.75 1.68 3.75 3.75a3.752 3.752 0 0 1-3.504 3.742L20 19.25c-2.07 0-3.75-1.68-3.75-3.75 0-2.07 1.68-3.75 3.75-3.75zm0 1.5a2.251 2.251 0 0 0-2.25 2.25c0 1.18.91 2.149 2.024 2.243l.177.008.198-.006A2.252 2.252 0 0 0 22.25 15.5 2.251 2.251 0 0 0 20 13.25z"/>
</svg>
