<svg width="32" height="32" fill="none" xmlns="http://www.w3.org/2000/svg">
    <path fill-rule="evenodd" clip-rule="evenodd" d="M22.4 5.333a1.6 1.6 0 0 1 1.6 1.6v18.134a1.6 1.6 0 0 1-1.6 1.6H9.6a1.6 1.6 0 0 1-1.6-1.6V6.933a1.6 1.6 0 0 1 1.6-1.6h12.8zm0 1.6H9.6v18.134h12.8V6.933zM12 11a.6.6 0 0 1 .6-.6h2.8a.6.6 0 0 1 .6.6v.4a.6.6 0 0 1-.6.6h-2.8a.6.6 0 0 1-.6-.6V11zm.6 2.6a.6.6 0 0 0-.6.6v.4a.6.6 0 0 0 .6.6h6.8a.6.6 0 0 0 .6-.6v-.4a.6.6 0 0 0-.6-.6h-6.8zm-.6 3.8a.6.6 0 0 1 .6-.6h6.8a.6.6 0 0 1 .6.6v.4a.6.6 0 0 1-.6.6h-6.8a.6.6 0 0 1-.6-.6v-.4zm.6 2.6a.6.6 0 0 0-.6.6v.4a.6.6 0 0 0 .6.6h6.8a.6.6 0 0 0 .6-.6v-.4a.6.6 0 0 0-.6-.6h-6.8z" fill="#EC1D23"/>
</svg>
