<svg xmlns="http://www.w3.org/2000/svg" width="24" height="24" viewBox="0 0 24 24">
    <path fill="#ec1d23" fill-rule="evenodd" d="M4.375 12a.625.625 0 1 1 1.25 0v6.375h12.75V12a.625.625 0 1 1 1.25 0v7c0 .345-.28.625-.625.625H5A.625.625 0 0 1 4.375 19zm3.648-3.023a.625.625 0 0 1 0-.883l3.535-3.536a.637.637 0 0 1 .301-.167.623.623 0 0 1 .141-.016l-.064.003a.628.628 0 0 1 .025-.002L12 4.375a.635.635 0 0 1 .349.106.624.624 0 0 1 .093.077l-.07-.06a.628.628 0 0 1 .063.054l.007.006 3.535 3.536a.625.625 0 1 1-.883.883L12.625 6.51V15a.625.625 0 0 1-.533.618l-.092.007a.625.625 0 0 1-.625-.625V6.509L8.906 8.977a.625.625 0 0 1-.797.073z"/>
</svg>
