<svg xmlns="http://www.w3.org/2000/svg" xmlns:xlink="http://www.w3.org/1999/xlink" width="99" height="98" viewBox="0 0 99 98">
    <defs>
        <path id="a" d="M31 .148C13.947.148.148 13.948.148 31c0 17.053 13.8 30.852 30.852 30.852 17.053 0 30.852-13.8 30.852-30.852C61.852 13.947 48.052.148 31 .148zm-3.856 13.275c0-2.21 1.735-4.02 3.856-4.02 2.121 0 3.856 1.81 3.856 4.02v22.813c0 2.21-1.735 4.02-3.856 4.02-2.121 0-3.856-1.81-3.856-4.02V13.423zM31 51.946a4.223 4.223 0 0 1-4.218-4.219A4.223 4.223 0 0 1 31 43.51a4.223 4.223 0 0 1 4.218 4.218A4.223 4.223 0 0 1 31 51.946z"/>
    </defs>
    <use fill="#FFF" fill-rule="evenodd" transform="translate(19 18)" xlink:href="#a"/>
</svg>
