<svg xmlns="http://www.w3.org/2000/svg" width="32" height="32" viewBox="0 0 32 32">
    <path fill="#9E9E9E" fill-rule="evenodd" d="M22 4a2 2 0 0 1 2 2v2.05a2.5 2.5 0 0 1 2 2.45v15a2.5 2.5 0 0 1-2.5 2.5h-13a2.5 2.5 0 0 1-2.45-2H8a2 2 0 0 1-2-2V6a2 2 0 0 1 2-2h14zm2 5.086V24a2 2 0 0 1-2 2H9.086a1.5 1.5 0 0 0 1.414 1h13a1.5 1.5 0 0 0 1.5-1.5v-15a1.5 1.5 0 0 0-1-1.414zM22 5H8a1 1 0 0 0-1 1v18a1 1 0 0 0 1 1h14a1 1 0 0 0 1-1V6a1 1 0 0 0-1-1zm-2 15v1H10v-1h10zm0-3v1H10v-1h10zm0-3v1H10v-1h10zm-3-3v1h-7v-1h7zm0-3v1h-7V8h7z"/>
</svg>
