<svg xmlns="http://www.w3.org/2000/svg" width="32" height="32" viewBox="0 0 32 32">
    <path fill="#BBB" fill-rule="evenodd" d="M9 13h3a1 1 0 0 1 1 1v9a1 1 0 0 1-1 1H9a1 1 0 0 1-1-1v-9a1 1 0 0 1 1-1zm.6 9.4h1.8v-7.8H9.6v7.8zM15 10h3a1 1 0 0 1 1 1v12a1 1 0 0 1-1 1h-3a1 1 0 0 1-1-1V11a1 1 0 0 1 1-1zm.6 12.4h1.8V11.6h-1.8v10.8zM21 17h3a1 1 0 0 1 1 1v5a1 1 0 0 1-1 1h-3a1 1 0 0 1-1-1v-5a1 1 0 0 1 1-1zm.6 5.4h1.8v-3.8h-1.8v3.8zM10 4a2 2 0 0 1 2-2h9a2 2 0 0 1 2 2h3a2 2 0 0 1 2 2v20a2 2 0 0 1-2 2H7a2 2 0 0 1-2-2V6a2 2 0 0 1 2-2h3zm.092 1.6H7a.4.4 0 0 0-.4.4v20c0 .22.18.4.4.4h19a.4.4 0 0 0 .4-.4V6a.4.4 0 0 0-.4-.4h-3.092A2 2 0 0 1 21 7h-9a2 2 0 0 1-1.908-1.4zM12 3.6a.4.4 0 0 0-.4.4v1c0 .22.18.4.4.4h9a.4.4 0 0 0 .4-.4V4a.4.4 0 0 0-.4-.4h-9z"/>
</svg>
