<svg xmlns="http://www.w3.org/2000/svg" width="32" height="32" viewBox="0 0 32 32">
    <path fill="#BBB" fill-rule="evenodd" d="M10 5a1 1 0 0 1 1-1h2a3 3 0 0 1 6 0h2a1 1 0 0 1 1 1h4a2 2 0 0 1 2 2v21a2 2 0 0 1-2 2H6a2 2 0 0 1-2-2V7a2 2 0 0 1 2-2h4zm0 1.6H8.6v17.8h14.8V6.6H22V8a1 1 0 0 1-1 1H11a1 1 0 0 1-1-1V6.6zm-3 0H6a.4.4 0 0 0-.4.4v21c0 .22.18.4.4.4h20a.4.4 0 0 0 .4-.4V7a.4.4 0 0 0-.4-.4h-1V25a1 1 0 0 1-1 1H8a1 1 0 0 1-1-1V6.6zm10.4-1V4a1.4 1.4 0 0 0-2.8 0v1.6h-3v1.8h8.8V5.6h-3zM12 13.8a.8.8 0 1 1 0-1.6h8a.8.8 0 1 1 0 1.6h-8zm0 4a.8.8 0 1 1 0-1.6h8a.8.8 0 1 1 0 1.6h-8zm0 4a.8.8 0 1 1 0-1.6h8a.8.8 0 1 1 0 1.6h-8z"/>
</svg>
