<svg xmlns="http://www.w3.org/2000/svg" width="24" height="24" viewBox="0 0 24 24">
    <path fill="#9E9E9E" fill-rule="evenodd" d="M12 4c4.422 0 8 3.578 8 8 0 4.422-3.578 8-8 8-4.422 0-8-3.578-8-8 0-4.422 3.578-8 8-8zm0 1.25c-1.806 0-3.503.7-4.775 1.975A6.716 6.716 0 0 0 5.25 12c0 1.806.7 3.503 1.975 4.775A6.716 6.716 0 0 0 12 18.75c1.806 0 3.503-.7 4.775-1.975A6.716 6.716 0 0 0 18.75 12c0-1.806-.7-3.503-1.975-4.775A6.716 6.716 0 0 0 12 5.25zm3.99 3.678c.25.244.26.638.02.888l-5.044 5.237a.63.63 0 0 1-.45.19h-.007a.628.628 0 0 1-.453-.2L7.981 12.81a.63.63 0 0 1 .031-.884.63.63 0 0 1 .885.031l1.625 1.75 4.584-4.762a.623.623 0 0 1 .885-.016z"/>
</svg>
