<svg xmlns="http://www.w3.org/2000/svg" width="32" height="32" viewBox="0 0 32 32">
    <g fill="none" fill-rule="evenodd">
        <path fill="#BBB" d="M6 22.8a.8.8 0 1 1 0-1.6v-4.4a.8.8 0 1 1 0-1.6v-3.9a.8.8 0 1 1 0-1.6V6a2 2 0 0 1 2-2h17a2 2 0 0 1 2 2v20a2 2 0 0 1-2 2H8a2 2 0 0 1-2-2v-3.2zm1.6 0V26c0 .22.18.4.4.4h17a.4.4 0 0 0 .4-.4V6a.4.4 0 0 0-.4-.4H8a.4.4 0 0 0-.4.4v3.7h1a.8.8 0 1 1 0 1.6h-1v3.9h1a.8.8 0 1 1 0 1.6h-1v4.4h1a.8.8 0 1 1 0 1.6h-1zm12.163-8.19A4.498 4.498 0 0 1 22 18.5V22a1 1 0 0 1-1 1h-8a1 1 0 0 1-1-1v-3.5c0-1.66.9-3.11 2.237-3.89a3.8 3.8 0 1 1 5.525 0zM17 14.2a2.2 2.2 0 1 0 0-4.4 2.2 2.2 0 0 0 0 4.4zm3.4 4.3a2.9 2.9 0 0 0-2.9-2.9h-1a2.9 2.9 0 0 0-2.9 2.9v2.9h6.8v-2.9z"/>
    </g>
</svg>
