<svg xmlns="http://www.w3.org/2000/svg" width="32" height="32" viewBox="0 0 32 32">
    <path fill="#BBB" fill-rule="evenodd" d="M23 4a2 2 0 0 1 2 2v9.471l-1 1V6a1 1 0 0 0-.883-.993L23 5H9a1 1 0 0 0-.993.883L8 6v20a1 1 0 0 0 .883.993L9 27h14a1 1 0 0 0 .993-.883L24 26v-2.458l1-1V26a2 2 0 0 1-2 2H9a2 2 0 0 1-2-2V6a2 2 0 0 1 2-2h14zm3.099 12.114l1.787 1.79a.39.39 0 0 1 0 .552l-7.003 7.01a.391.391 0 0 1-.203.107l-2.217.42a.39.39 0 0 1-.456-.458l.43-2.21a.391.391 0 0 1 .107-.201l7.003-7.01a.39.39 0 0 1 .552 0zm-2.25 2.804l-4.669 4.674-.297 1.526 1.533-.29 4.668-4.674-1.235-1.236zM16 23v1h-5v-1h5zm0-3v1h-5v-1h5zm9.823-3.057L24.4 18.366l1.235 1.236 1.422-1.423-1.235-1.236zM21 17v1H11v-1h10zm0-3v1H11v-1h10zm0-3v1H11v-1h10zm0-3v1H11V8h10z"/>
</svg>
