<svg xmlns="http://www.w3.org/2000/svg" xmlns:xlink="http://www.w3.org/1999/xlink" width="24" height="24" viewBox="0 0 24 24">
    <defs>
        <path id="a" d="M8.954 0c.878 0 1.595.706 1.595 1.578l-.001.462h.993c.037 0 .073.004.109.01h1.71c.352 0 .64.281.64.625a.635.635 0 0 1-.643.625h-1.221l-.867 12.119a.626.626 0 0 1-.634.581H3.362a.637.637 0 0 1-.64-.581L1.853 3.3H.64A.635.635 0 0 1 0 2.675c0-.344.288-.625.64-.625h1.7a.647.647 0 0 1 .11-.01h.997l.001-.462C3.448.71 4.162 0 5.042 0h3.912zm1.904 3.3h-7.72l.822 11.45h6.08l.818-11.45zM9.054 4.94c.272.016.477.216.458.448l-.612 7.19c-.016.222-.234.388-.493.388h-.035c-.275-.016-.48-.22-.461-.447l.611-7.19c.02-.232.26-.404.532-.388zM5.07 4.939c.275-.016.512.159.532.387l.608 7.19c.019.232-.189.432-.461.448h-.035c-.257 0-.474-.166-.493-.388l-.612-7.19c-.02-.232.189-.432.461-.447zm3.88-3.688H5.042a.321.321 0 0 0-.313.328v.428h4.536v-.428a.321.321 0 0 0-.314-.328z"/>
    </defs>
    <use fill="#333739" fill-rule="evenodd" transform="translate(5 4)" xlink:href="#a"/>
</svg>
