<svg xmlns="http://www.w3.org/2000/svg" width="32" height="32" viewBox="0 0 32 32">
    <path fill="#9E9E9E" fill-rule="evenodd" d="M22 4a2 2 0 0 1 2 2v2.05a2.5 2.5 0 0 1 2 2.45v15a2.5 2.5 0 0 1-2.5 2.5h-13a2.5 2.5 0 0 1-2.45-2H8a2 2 0 0 1-2-2V6a2 2 0 0 1 2-2h14zm2 5.086V24a2 2 0 0 1-2 2H9.086a1.5 1.5 0 0 0 1.414 1h13a1.5 1.5 0 0 0 1.5-1.5v-15a1.5 1.5 0 0 0-1-1.414zM23 6a1 1 0 0 0-1-1H8a1 1 0 0 0-1 1v18a1 1 0 0 0 1 1h14a1 1 0 0 0 1-1V6zM11.276 18c.582 0 1.004.08 1.267.242.263.162.394.418.394.77 0 .24-.058.435-.173.589a.692.692 0 0 1-.458.276v.027c.26.057.447.163.562.318.115.155.173.36.173.618 0 .365-.135.65-.406.854-.27.204-.637.306-1.1.306H10v-4h1.276zm3.894 0c.497 0 .875.104 1.134.313.26.21.389.52.389.935 0 .43-.138.76-.414.987-.276.228-.668.342-1.177.342h-.373V22h-.87v-4h1.31zm3.167 0v3.3H20v.7h-2.533v-4h.87zm-6.929 2.257h-.538V21.3h.566c.24 0 .416-.045.53-.134.114-.09.171-.227.171-.41 0-.333-.243-.499-.729-.499zm3.717-1.562h-.396v1.187h.286c.268 0 .468-.051.6-.154.133-.103.2-.253.2-.45 0-.2-.056-.346-.167-.44-.111-.096-.286-.143-.523-.143zm-3.798 0h-.457v.89h.504c.236 0 .407-.036.512-.108.106-.07.159-.188.159-.353 0-.153-.058-.263-.173-.33-.115-.066-.296-.1-.545-.1zM20 12v1H10v-1h10zm-3-3v1h-7V9h7z"/>
</svg>
