<svg xmlns="http://www.w3.org/2000/svg" width="26" height="26" viewBox="0 0 26 26">
    <path fill="#FF7547" fill-rule="evenodd" d="M13 5.2c4.311 0 7.8 3.489 7.8 7.8s-3.489 7.8-7.8 7.8A7.796 7.796 0 0 1 5.2 13c0-4.311 3.489-7.8 7.8-7.8zm0 1.56c-1.67 0-3.238.647-4.414 1.826A6.208 6.208 0 0 0 6.76 13c0 1.67.647 3.238 1.826 4.414A6.208 6.208 0 0 0 13 19.24c1.67 0 3.238-.647 4.414-1.826A6.208 6.208 0 0 0 19.24 13c0-1.67-.647-3.238-1.826-4.414A6.208 6.208 0 0 0 13 6.76zm0 9.36a.78.78 0 1 1 0 1.56.78.78 0 0 1 0-1.56zm.03-7.8a.75.75 0 0 1 .75.75v5a.75.75 0 0 1-.75.75h-.06a.75.75 0 0 1-.75-.75v-5a.75.75 0 0 1 .75-.75h.06z"/>
</svg>
