<svg xmlns="http://www.w3.org/2000/svg" width="24" height="24" viewBox="0 0 24 24">
    <path fill="#EC1D23" fill-rule="evenodd" d="M12.715 4c.314.002.613.12.832.33l4.1 3.831c.225.205.351.485.353.778v8.955c0 .09-.006.177-.019.258l-.011.053-.013.065c-.115.457-.463.73-1.078.73H6.185C5.53 19 5 18.505 5 17.894V5.107C5 4.496 5.53 4 6.185 4h6.53zM12 4.794H6.185c-.185 0-.335.14-.335.313v12.787c0 .172.15.312.335.312H17.15V9h-3.8C12.605 9 12 8.5 12 7.883V4.794zM15.577 15c.234 0 .423.224.423.5s-.19.5-.423.5H7.423C7.19 16 7 15.776 7 15.5s.19-.5.423-.5h8.154zm0-2c.234 0 .423.224.423.5s-.19.5-.423.5H7.423C7.19 14 7 13.776 7 13.5s.19-.5.423-.5h8.154zm-4.039-2c.255 0 .462.224.462.5s-.207.5-.462.5H7.462C7.207 12 7 11.776 7 11.5s.207-.5.462-.5h4.076zm4.946-2.802l-3.516-3.287v2.972c0 .174.171.315.382.315h3.134z"/>
</svg>
