<svg xmlns="http://www.w3.org/2000/svg" width="32" height="32" viewBox="0 0 32 32">
    <path fill="#BBB" fill-rule="evenodd" d="M25 3.2a.8.8 0 0 1 .794.7l.006.1v7a.8.8 0 0 1-.03.22l.922.78h.108v.091l2.717 2.298a.8.8 0 0 1-.946 1.286l-.088-.064-1.683-1.425v10.671c0 1.556-1.154 2.848-2.634 2.938L24 27.8H8c-1.504 0-2.711-1.236-2.795-2.771l-.005-.172V14.185l-1.683 1.426a.8.8 0 0 1-1.112-1.146l.078-.076L5.2 12.09V12h.106l10.177-8.61a.8.8 0 0 1 .94-.069l.094.068L21.2 7.352V4a.8.8 0 0 1 .7-.794L22 3.2h3zm-9 1.848l-9.2 7.783v12.026c0 .707.483 1.269 1.08 1.336L8 26.2h16c.61 0 1.13-.518 1.194-1.204l.006-.139V12.832L16 5.048zM19 13a1 1 0 0 1 1 1v2h2a1 1 0 0 1 1 1v6a1 1 0 0 1-1 1h-9a1 1 0 0 1-1-1v-2h-2a1 1 0 0 1-1-1v-6a1 1 0 0 1 1-1h9zm2.4 4.6H20V20a1 1 0 0 1-1 1h-5.4v1.4h7.8v-4.8zm-3-3h-7.8v4.8h7.8v-4.8zm-5.843 1.6h3.114a.8.8 0 0 1 .1 1.594l-.1.006h-3.114a.8.8 0 0 1-.1-1.594l.1-.006h3.114zM24.2 4.8h-1.4v3.906l1.4 1.185V4.8z"/>
</svg>
