<svg xmlns="http://www.w3.org/2000/svg" width="32" height="32" viewBox="0 0 32 32">
    <path fill="#BBB" fill-rule="evenodd" d="M27.4 21.4v-8.2a.4.4 0 0 0-.4-.4H9a.4.4 0 0 0-.4.4v8.225a.801.801 0 0 1 .2-.025h18.6zm0 1.6H8.8a.801.801 0 0 1-.2-.025V25.2c0 .22.18.4.4.4h18a.4.4 0 0 0 .4-.4V23zM7 18.4v-5.2a2 2 0 0 1 2-2h14.4V9.3H4.6V18c0 .22.18.4.4.4h2zm18-7.2h2a2 2 0 0 1 2 2v12a2 2 0 0 1-2 2H9a2 2 0 0 1-2-2V20H5a2 2 0 0 1-2-2V6a2 2 0 0 1 2-2h18a2 2 0 0 1 2 2v5.2zm-1.6-3.5V6a.4.4 0 0 0-.4-.4H5a.4.4 0 0 0-.4.4v1.7h18.8zM11 14h3a1 1 0 0 1 1 1v3a1 1 0 0 1-1 1h-3a1 1 0 0 1-1-1v-3a1 1 0 0 1 1-1zm.6 3.4h1.8v-1.8h-1.8v1.8zM23.2 16a.8.8 0 1 1 1.6 0v1a.8.8 0 1 1-1.6 0v-1zm-6 0a.8.8 0 1 1 1.6 0v1a.8.8 0 1 1-1.6 0v-1zm3 0a.8.8 0 1 1 1.6 0v1a.8.8 0 1 1-1.6 0v-1z"/>
</svg>
