<svg xmlns="http://www.w3.org/2000/svg" width="32" height="32" viewBox="0 0 32 32">
    <path fill="#BBB" fill-rule="evenodd" d="M5 8V7a2 2 0 0 1 2-2h22a2 2 0 0 1 2 2v14a2 2 0 0 1-2 2h-1v1a2 2 0 0 1-2 2H4a2 2 0 0 1-2-2V10a2 2 0 0 1 2-2h1zm0 1.6H4a.4.4 0 0 0-.4.4v14c0 .22.18.4.4.4h22a.4.4 0 0 0 .4-.4v-1H7a2 2 0 0 1-2-2V9.6zm2-3a.4.4 0 0 0-.4.4v14c0 .22.18.4.4.4h22a.4.4 0 0 0 .4-.4V7a.4.4 0 0 0-.4-.4H7zM28 18c-.968 0-1.775.859-1.96 2H9.96c-.185-1.141-.992-2-1.96-2v-7c1.105 0 2-1.12 2-2.5a3.12 3.12 0 0 0-.04-.5h16.08a3.12 3.12 0 0 0-.04.5c0 1.38.895 2.5 2 2.5v7zm-1.6-5.816c-.923-.516-1.599-1.465-1.87-2.584H11.47c-.271 1.119-.947 2.068-1.87 2.584v4.634c.63.353 1.146.907 1.497 1.582h13.806c.35-.675.868-1.23 1.497-1.582v-4.634zM18 17.2a3.2 3.2 0 1 1 0-6.4 3.2 3.2 0 0 1 0 6.4zm0-1.4a1.8 1.8 0 1 0 0-3.6 1.8 1.8 0 0 0 0 3.6z"/>
</svg>
