<svg xmlns="http://www.w3.org/2000/svg" width="20" height="20" viewBox="0 0 20 20">
    <path fill="#EC1D23" fill-rule="evenodd" d="M4 10a.492.492 0 1 1 .984 0v5.016h10.032V10A.492.492 0 0 1 16 10v5.508c0 .272-.22.492-.492.492H4.492A.492.492 0 0 1 4 15.508zm2.87-2.378a.492.492 0 0 1 0-.696l2.782-2.782.03-.027.008-.004a.442.442 0 0 1 .137-.082l.015-.003a.302.302 0 0 1 .062-.019.62.62 0 0 1 .104-.009l-.077.005A.494.494 0 0 1 9.986 4h.046l.02.003c.155.012.29.095.372.216l2.706 2.707a.492.492 0 0 1-.696.696l-1.926-1.925v6.664a.494.494 0 0 1-.41.484l-.09.007c-.276 0-.5-.22-.5-.491V5.679L7.566 7.622a.492.492 0 0 1-.628.057z"/>
</svg>
